G04*
G04 #@! TF.GenerationSoftware,Altium Limited,Altium NEXUS,2.1.9 (83)*
G04*
G04 Layer_Color=255*
%FSLAX44Y44*%
%MOMM*%
G71*
G01*
G75*
%ADD19R,1.1000X1.0000*%
%ADD20R,1.4620X0.3548*%
%ADD21R,4.0000X4.0000*%
G04:AMPARAMS|DCode=22|XSize=1.56mm|YSize=0.28mm|CornerRadius=0.035mm|HoleSize=0mm|Usage=FLASHONLY|Rotation=0.000|XOffset=0mm|YOffset=0mm|HoleType=Round|Shape=RoundedRectangle|*
%AMROUNDEDRECTD22*
21,1,1.5600,0.2100,0,0,0.0*
21,1,1.4900,0.2800,0,0,0.0*
1,1,0.0700,0.7450,-0.1050*
1,1,0.0700,-0.7450,-0.1050*
1,1,0.0700,-0.7450,0.1050*
1,1,0.0700,0.7450,0.1050*
%
%ADD22ROUNDEDRECTD22*%
G04:AMPARAMS|DCode=23|XSize=1.56mm|YSize=0.28mm|CornerRadius=0.035mm|HoleSize=0mm|Usage=FLASHONLY|Rotation=90.000|XOffset=0mm|YOffset=0mm|HoleType=Round|Shape=RoundedRectangle|*
%AMROUNDEDRECTD23*
21,1,1.5600,0.2100,0,0,90.0*
21,1,1.4900,0.2800,0,0,90.0*
1,1,0.0700,0.1050,0.7450*
1,1,0.0700,0.1050,-0.7450*
1,1,0.0700,-0.1050,-0.7450*
1,1,0.0700,-0.1050,0.7450*
%
%ADD23ROUNDEDRECTD23*%
%ADD24R,1.0000X1.0000*%
%ADD25R,0.8000X0.6000*%
%ADD26R,1.3500X0.4000*%
%ADD27R,1.5500X1.5000*%
%ADD28R,0.8000X0.7000*%
%ADD29R,1.5500X0.5500*%
G04:AMPARAMS|DCode=30|XSize=0.55mm|YSize=1.55mm|CornerRadius=0mm|HoleSize=0mm|Usage=FLASHONLY|Rotation=90.000|XOffset=0mm|YOffset=0mm|HoleType=Round|Shape=Octagon|*
%AMOCTAGOND30*
4,1,8,-0.7750,-0.1375,-0.7750,0.1375,-0.6375,0.2750,0.6375,0.2750,0.7750,0.1375,0.7750,-0.1375,0.6375,-0.2750,-0.6375,-0.2750,-0.7750,-0.1375,0.0*
%
%ADD30OCTAGOND30*%

%ADD31R,3.1900X1.8600*%
%ADD32R,0.9000X1.8600*%
%ADD33R,1.6000X1.4000*%
%ADD34R,0.7000X0.8000*%
%ADD35R,0.6000X0.8000*%
%ADD36R,1.0000X1.0000*%
%ADD56C,1.0000*%
%ADD61C,1.6000*%
%ADD62R,1.6000X1.6000*%
%ADD63O,0.6500X1.3000*%
%ADD64O,1.5500X0.7750*%
D19*
X1431500Y384660D02*
D03*
X1448500D02*
D03*
D20*
X1502500Y468170D02*
D03*
Y461667D02*
D03*
Y455165D02*
D03*
Y448662D02*
D03*
Y442160D02*
D03*
Y435658D02*
D03*
Y429155D02*
D03*
X1444080D02*
D03*
Y435658D02*
D03*
Y442160D02*
D03*
Y448662D02*
D03*
Y455165D02*
D03*
Y461667D02*
D03*
Y468170D02*
D03*
D21*
X1081750Y439500D02*
D03*
D22*
X1123550Y467000D02*
D03*
Y462000D02*
D03*
Y457000D02*
D03*
Y452000D02*
D03*
Y447000D02*
D03*
Y442000D02*
D03*
Y437000D02*
D03*
Y432000D02*
D03*
Y427000D02*
D03*
Y422000D02*
D03*
Y417000D02*
D03*
Y412000D02*
D03*
X1039950D02*
D03*
Y417000D02*
D03*
Y422000D02*
D03*
Y427000D02*
D03*
Y432000D02*
D03*
Y437000D02*
D03*
Y442000D02*
D03*
Y447000D02*
D03*
Y452000D02*
D03*
Y457000D02*
D03*
Y462000D02*
D03*
Y467000D02*
D03*
D23*
X1054250Y481300D02*
D03*
X1059250D02*
D03*
X1064250D02*
D03*
X1069250D02*
D03*
X1074250D02*
D03*
X1079250D02*
D03*
X1084250D02*
D03*
X1089250D02*
D03*
X1094250D02*
D03*
X1099250D02*
D03*
X1104250D02*
D03*
X1109250D02*
D03*
Y397700D02*
D03*
X1104250D02*
D03*
X1099250D02*
D03*
X1094250D02*
D03*
X1089250D02*
D03*
X1084250D02*
D03*
X1079250D02*
D03*
X1074250D02*
D03*
X1069250D02*
D03*
X1064250D02*
D03*
X1059250D02*
D03*
X1054250D02*
D03*
D24*
X1095000Y501500D02*
D03*
X1111000D02*
D03*
X1622500Y384410D02*
D03*
X1638500D02*
D03*
X1653250Y384660D02*
D03*
X1669250D02*
D03*
D25*
X907000Y386660D02*
D03*
X919000D02*
D03*
D26*
X1788000Y411660D02*
D03*
Y418160D02*
D03*
Y424660D02*
D03*
Y431160D02*
D03*
Y437660D02*
D03*
D27*
X1815000Y414660D02*
D03*
Y434660D02*
D03*
D28*
X1061750Y502500D02*
D03*
X1073750D02*
D03*
X1478500Y384660D02*
D03*
X1466500D02*
D03*
D29*
X1514250Y397160D02*
D03*
X1495750Y387660D02*
D03*
D30*
Y406660D02*
D03*
D31*
X1642500Y465410D02*
D03*
D32*
X1665500Y403910D02*
D03*
X1642500D02*
D03*
X1619500D02*
D03*
D33*
X846500Y404660D02*
D03*
X918500D02*
D03*
X846500Y434660D02*
D03*
X918500D02*
D03*
D34*
X1435000Y403660D02*
D03*
Y415660D02*
D03*
X1445000Y403660D02*
D03*
Y415660D02*
D03*
X1517500Y443660D02*
D03*
Y455660D02*
D03*
D35*
X1517500Y430660D02*
D03*
Y418660D02*
D03*
D36*
X1757500Y427660D02*
D03*
Y411660D02*
D03*
D56*
X1463500Y487960D02*
D03*
X1473650Y411760D02*
D03*
X1483800Y487960D02*
D03*
D61*
X1415500Y358660D02*
D03*
D62*
X1390100D02*
D03*
D63*
X1788000Y399660D02*
D03*
Y449660D02*
D03*
D64*
X1815000Y389660D02*
D03*
Y459660D02*
D03*
M02*
