G04*
G04 #@! TF.GenerationSoftware,Altium Limited,Altium NEXUS,2.1.9 (83)*
G04*
G04 Layer_Color=8388736*
%FSLAX44Y44*%
%MOMM*%
G71*
G01*
G75*
%ADD20R,1.4620X0.3548*%
%ADD37R,1.3032X1.2032*%
%ADD38R,4.2032X4.2032*%
G04:AMPARAMS|DCode=39|XSize=1.7632mm|YSize=0.4832mm|CornerRadius=0.1366mm|HoleSize=0mm|Usage=FLASHONLY|Rotation=0.000|XOffset=0mm|YOffset=0mm|HoleType=Round|Shape=RoundedRectangle|*
%AMROUNDEDRECTD39*
21,1,1.7632,0.2100,0,0,0.0*
21,1,1.4900,0.4832,0,0,0.0*
1,1,0.2732,0.7450,-0.1050*
1,1,0.2732,-0.7450,-0.1050*
1,1,0.2732,-0.7450,0.1050*
1,1,0.2732,0.7450,0.1050*
%
%ADD39ROUNDEDRECTD39*%
G04:AMPARAMS|DCode=40|XSize=1.7632mm|YSize=0.4832mm|CornerRadius=0.1366mm|HoleSize=0mm|Usage=FLASHONLY|Rotation=90.000|XOffset=0mm|YOffset=0mm|HoleType=Round|Shape=RoundedRectangle|*
%AMROUNDEDRECTD40*
21,1,1.7632,0.2100,0,0,90.0*
21,1,1.4900,0.4832,0,0,90.0*
1,1,0.2732,0.1050,0.7450*
1,1,0.2732,0.1050,-0.7450*
1,1,0.2732,-0.1050,-0.7450*
1,1,0.2732,-0.1050,0.7450*
%
%ADD40ROUNDEDRECTD40*%
%ADD41R,1.2032X1.2032*%
%ADD42R,1.0032X0.8032*%
%ADD43R,1.5532X0.6032*%
%ADD44R,1.7532X1.7032*%
%ADD45R,1.0032X0.9032*%
%ADD46R,1.7532X0.7532*%
G04:AMPARAMS|DCode=47|XSize=0.7532mm|YSize=1.7532mm|CornerRadius=0mm|HoleSize=0mm|Usage=FLASHONLY|Rotation=90.000|XOffset=0mm|YOffset=0mm|HoleType=Round|Shape=Octagon|*
%AMOCTAGOND47*
4,1,8,-0.8766,-0.1883,-0.8766,0.1883,-0.6883,0.3766,0.6883,0.3766,0.8766,0.1883,0.8766,-0.1883,0.6883,-0.3766,-0.6883,-0.3766,-0.8766,-0.1883,0.0*
%
%ADD47OCTAGOND47*%

%ADD48R,3.3932X2.0632*%
%ADD49R,1.1032X2.0632*%
%ADD50R,1.8032X1.6032*%
%ADD51R,0.9032X1.0032*%
%ADD52R,0.8032X1.0032*%
%ADD53R,1.2032X1.2032*%
%ADD54C,1.8032*%
%ADD55R,1.8032X1.8032*%
%ADD56C,1.0000*%
%ADD57O,0.8532X1.5032*%
%ADD58O,1.7532X0.9782*%
%ADD59C,0.6532*%
G36*
X1823750Y402660D02*
Y388660D01*
X1823743Y388398D01*
X1823723Y388137D01*
X1823689Y387878D01*
X1823641Y387621D01*
X1823580Y387366D01*
X1823505Y387115D01*
X1823418Y386868D01*
X1823318Y386626D01*
X1823205Y386390D01*
X1823080Y386160D01*
X1822943Y385937D01*
X1822795Y385721D01*
X1822636Y385513D01*
X1822466Y385314D01*
X1822285Y385125D01*
X1822096Y384944D01*
X1821897Y384774D01*
X1821689Y384615D01*
X1821473Y384467D01*
X1821250Y384330D01*
X1821020Y384205D01*
X1820784Y384092D01*
X1820542Y383992D01*
X1820295Y383905D01*
X1820044Y383830D01*
X1819790Y383769D01*
X1819532Y383722D01*
X1819273Y383687D01*
X1819012Y383667D01*
X1818750Y383660D01*
X1811250D01*
X1810988Y383667D01*
X1810727Y383687D01*
X1810468Y383722D01*
X1810211Y383769D01*
X1809956Y383830D01*
X1809705Y383905D01*
X1809458Y383992D01*
X1809216Y384092D01*
X1808980Y384205D01*
X1808750Y384330D01*
X1808527Y384467D01*
X1808311Y384615D01*
X1808103Y384774D01*
X1807904Y384944D01*
X1807715Y385125D01*
X1807534Y385314D01*
X1807364Y385513D01*
X1807205Y385721D01*
X1807057Y385937D01*
X1806920Y386160D01*
X1806795Y386390D01*
X1806682Y386626D01*
X1806582Y386868D01*
X1806495Y387115D01*
X1806420Y387366D01*
X1806359Y387621D01*
X1806312Y387878D01*
X1806277Y388137D01*
X1806257Y388398D01*
X1806250Y388660D01*
Y402660D01*
X1823750D01*
D02*
G37*
G36*
X1806257Y460922D02*
X1806277Y461183D01*
X1806312Y461442D01*
X1806359Y461700D01*
X1806420Y461954D01*
X1806495Y462205D01*
X1806582Y462452D01*
X1806682Y462694D01*
X1806795Y462930D01*
X1806920Y463160D01*
X1807057Y463383D01*
X1807205Y463599D01*
X1807364Y463807D01*
X1807534Y464006D01*
X1807715Y464196D01*
X1807904Y464376D01*
X1808103Y464546D01*
X1808311Y464705D01*
X1808527Y464853D01*
X1808750Y464990D01*
X1808980Y465115D01*
X1809216Y465228D01*
X1809458Y465328D01*
X1809705Y465415D01*
X1809956Y465490D01*
X1810211Y465551D01*
X1810468Y465598D01*
X1810727Y465633D01*
X1810988Y465653D01*
X1811250Y465660D01*
X1818750D01*
X1819012Y465653D01*
X1819273Y465633D01*
X1819532Y465598D01*
X1819790Y465551D01*
X1820044Y465490D01*
X1820295Y465415D01*
X1820542Y465328D01*
X1820784Y465228D01*
X1821020Y465115D01*
X1821250Y464990D01*
X1821473Y464853D01*
X1821689Y464705D01*
X1821897Y464546D01*
X1822096Y464376D01*
X1822285Y464196D01*
X1822466Y464006D01*
X1822636Y463807D01*
X1822795Y463599D01*
X1822943Y463383D01*
X1823080Y463160D01*
X1823205Y462930D01*
X1823318Y462694D01*
X1823418Y462452D01*
X1823505Y462205D01*
X1823580Y461954D01*
X1823641Y461700D01*
X1823689Y461442D01*
X1823723Y461183D01*
X1823743Y460922D01*
X1823750Y460660D01*
Y446660D01*
X1806250D01*
Y460660D01*
X1806257Y460922D01*
D02*
G37*
D20*
X1502500Y468170D02*
D03*
Y461667D02*
D03*
Y455165D02*
D03*
Y448662D02*
D03*
Y442160D02*
D03*
Y435658D02*
D03*
Y429155D02*
D03*
X1444080D02*
D03*
Y435658D02*
D03*
Y442160D02*
D03*
Y448662D02*
D03*
Y455165D02*
D03*
Y461667D02*
D03*
Y468170D02*
D03*
D37*
X1431500Y384660D02*
D03*
X1448500D02*
D03*
D38*
X1081750Y439500D02*
D03*
D39*
X1123550Y467000D02*
D03*
Y462000D02*
D03*
Y457000D02*
D03*
Y452000D02*
D03*
Y447000D02*
D03*
Y442000D02*
D03*
Y437000D02*
D03*
Y432000D02*
D03*
Y427000D02*
D03*
Y422000D02*
D03*
Y417000D02*
D03*
Y412000D02*
D03*
X1039950D02*
D03*
Y417000D02*
D03*
Y422000D02*
D03*
Y427000D02*
D03*
Y432000D02*
D03*
Y437000D02*
D03*
Y442000D02*
D03*
Y447000D02*
D03*
Y452000D02*
D03*
Y457000D02*
D03*
Y462000D02*
D03*
Y467000D02*
D03*
D40*
X1054250Y481300D02*
D03*
X1059250D02*
D03*
X1064250D02*
D03*
X1069250D02*
D03*
X1074250D02*
D03*
X1079250D02*
D03*
X1084250D02*
D03*
X1089250D02*
D03*
X1094250D02*
D03*
X1099250D02*
D03*
X1104250D02*
D03*
X1109250D02*
D03*
Y397700D02*
D03*
X1104250D02*
D03*
X1099250D02*
D03*
X1094250D02*
D03*
X1089250D02*
D03*
X1084250D02*
D03*
X1079250D02*
D03*
X1074250D02*
D03*
X1069250D02*
D03*
X1064250D02*
D03*
X1059250D02*
D03*
X1054250D02*
D03*
D41*
X1095000Y501500D02*
D03*
X1111000D02*
D03*
X1622500Y384410D02*
D03*
X1638500D02*
D03*
X1653250Y384660D02*
D03*
X1669250D02*
D03*
D42*
X907000Y386660D02*
D03*
X919000D02*
D03*
D43*
X1788000Y411660D02*
D03*
Y418160D02*
D03*
Y424660D02*
D03*
Y431160D02*
D03*
Y437660D02*
D03*
D44*
X1815000Y414660D02*
D03*
Y434660D02*
D03*
D45*
X1061750Y502500D02*
D03*
X1073750D02*
D03*
X1478500Y384660D02*
D03*
X1466500D02*
D03*
D46*
X1514250Y397160D02*
D03*
X1495750Y387660D02*
D03*
D47*
Y406660D02*
D03*
D48*
X1642500Y465410D02*
D03*
D49*
X1665500Y403910D02*
D03*
X1642500D02*
D03*
X1619500D02*
D03*
D50*
X846500Y404660D02*
D03*
X918500D02*
D03*
X846500Y434660D02*
D03*
X918500D02*
D03*
D51*
X1435000Y403660D02*
D03*
Y415660D02*
D03*
X1445000Y403660D02*
D03*
Y415660D02*
D03*
X1517500Y443660D02*
D03*
Y455660D02*
D03*
D52*
X1517500Y430660D02*
D03*
Y418660D02*
D03*
D53*
X1757500Y427660D02*
D03*
Y411660D02*
D03*
D54*
X1415500Y358660D02*
D03*
D55*
X1390100D02*
D03*
D56*
X1463500Y487960D02*
D03*
X1473650Y411760D02*
D03*
X1483800Y487960D02*
D03*
D57*
X1788000Y399660D02*
D03*
Y449660D02*
D03*
D58*
X1815000Y389660D02*
D03*
Y459660D02*
D03*
D59*
X1070750Y428500D02*
D03*
Y450000D02*
D03*
X1092250D02*
D03*
X1092500Y428250D02*
D03*
X1013500Y500250D02*
D03*
X1146250Y505250D02*
D03*
M02*
