G04*
G04 #@! TF.GenerationSoftware,Altium Limited,Altium NEXUS,2.1.9 (83)*
G04*
G04 Layer_Color=8421504*
%FSLAX44Y44*%
%MOMM*%
G71*
G01*
G75*
%ADD18C,0.0001*%
%ADD19R,1.1000X1.0000*%
%ADD20R,1.4620X0.3548*%
%ADD21R,4.0000X4.0000*%
G04:AMPARAMS|DCode=22|XSize=1.56mm|YSize=0.28mm|CornerRadius=0.035mm|HoleSize=0mm|Usage=FLASHONLY|Rotation=0.000|XOffset=0mm|YOffset=0mm|HoleType=Round|Shape=RoundedRectangle|*
%AMROUNDEDRECTD22*
21,1,1.5600,0.2100,0,0,0.0*
21,1,1.4900,0.2800,0,0,0.0*
1,1,0.0700,0.7450,-0.1050*
1,1,0.0700,-0.7450,-0.1050*
1,1,0.0700,-0.7450,0.1050*
1,1,0.0700,0.7450,0.1050*
%
%ADD22ROUNDEDRECTD22*%
G04:AMPARAMS|DCode=23|XSize=1.56mm|YSize=0.28mm|CornerRadius=0.035mm|HoleSize=0mm|Usage=FLASHONLY|Rotation=90.000|XOffset=0mm|YOffset=0mm|HoleType=Round|Shape=RoundedRectangle|*
%AMROUNDEDRECTD23*
21,1,1.5600,0.2100,0,0,90.0*
21,1,1.4900,0.2800,0,0,90.0*
1,1,0.0700,0.1050,0.7450*
1,1,0.0700,0.1050,-0.7450*
1,1,0.0700,-0.1050,-0.7450*
1,1,0.0700,-0.1050,0.7450*
%
%ADD23ROUNDEDRECTD23*%
%ADD24R,1.0000X1.0000*%
%ADD25R,0.8000X0.6000*%
%ADD26R,1.3500X0.4000*%
%ADD27R,1.5500X1.5000*%
%ADD28R,0.8000X0.7000*%
%ADD29R,1.5500X0.5500*%
G04:AMPARAMS|DCode=30|XSize=0.55mm|YSize=1.55mm|CornerRadius=0mm|HoleSize=0mm|Usage=FLASHONLY|Rotation=90.000|XOffset=0mm|YOffset=0mm|HoleType=Round|Shape=Octagon|*
%AMOCTAGOND30*
4,1,8,-0.7750,-0.1375,-0.7750,0.1375,-0.6375,0.2750,0.6375,0.2750,0.7750,0.1375,0.7750,-0.1375,0.6375,-0.2750,-0.6375,-0.2750,-0.7750,-0.1375,0.0*
%
%ADD30OCTAGOND30*%

%ADD31R,3.1900X1.8600*%
%ADD32R,0.9000X1.8600*%
%ADD33R,1.6000X1.4000*%
%ADD34R,0.7000X0.8000*%
%ADD35R,0.6000X0.8000*%
%ADD36R,1.0000X1.0000*%
G36*
X1822750Y389660D02*
X1822743Y389398D01*
X1822723Y389137D01*
X1822688Y388878D01*
X1822641Y388620D01*
X1822580Y388366D01*
X1822505Y388115D01*
X1822418Y387868D01*
X1822318Y387626D01*
X1822205Y387390D01*
X1822080Y387160D01*
X1821943Y386937D01*
X1821795Y386721D01*
X1821636Y386513D01*
X1821466Y386314D01*
X1821286Y386124D01*
X1821096Y385944D01*
X1820897Y385774D01*
X1820689Y385615D01*
X1820473Y385467D01*
X1820250Y385330D01*
X1820020Y385205D01*
X1819784Y385092D01*
X1819542Y384992D01*
X1819295Y384905D01*
X1819044Y384830D01*
X1818790Y384769D01*
X1818532Y384722D01*
X1818273Y384687D01*
X1818012Y384667D01*
X1817750Y384660D01*
X1812250D01*
X1811988Y384667D01*
X1811727Y384687D01*
X1811468Y384722D01*
X1811210Y384769D01*
X1810956Y384830D01*
X1810705Y384905D01*
X1810458Y384992D01*
X1810216Y385092D01*
X1809980Y385205D01*
X1809750Y385330D01*
X1809527Y385467D01*
X1809311Y385615D01*
X1809103Y385774D01*
X1808904Y385944D01*
X1808714Y386124D01*
X1808534Y386314D01*
X1808364Y386513D01*
X1808205Y386721D01*
X1808057Y386937D01*
X1807920Y387160D01*
X1807795Y387390D01*
X1807682Y387626D01*
X1807582Y387868D01*
X1807495Y388115D01*
X1807420Y388366D01*
X1807359Y388620D01*
X1807312Y388878D01*
X1807277Y389137D01*
X1807257Y389398D01*
X1807250Y389660D01*
Y401660D01*
X1822750D01*
Y389660D01*
D02*
G37*
G36*
X1818012Y464653D02*
X1818273Y464633D01*
X1818532Y464599D01*
X1818790Y464551D01*
X1819044Y464490D01*
X1819295Y464415D01*
X1819542Y464328D01*
X1819784Y464228D01*
X1820020Y464115D01*
X1820250Y463990D01*
X1820473Y463853D01*
X1820689Y463705D01*
X1820897Y463546D01*
X1821096Y463376D01*
X1821286Y463195D01*
X1821466Y463006D01*
X1821636Y462807D01*
X1821795Y462599D01*
X1821943Y462383D01*
X1822080Y462160D01*
X1822205Y461930D01*
X1822318Y461694D01*
X1822418Y461452D01*
X1822505Y461205D01*
X1822580Y460954D01*
X1822641Y460700D01*
X1822688Y460442D01*
X1822723Y460183D01*
X1822743Y459922D01*
X1822750Y459660D01*
Y447660D01*
X1807250D01*
Y459660D01*
X1807257Y459922D01*
X1807277Y460183D01*
X1807312Y460442D01*
X1807359Y460700D01*
X1807420Y460954D01*
X1807495Y461205D01*
X1807582Y461452D01*
X1807682Y461694D01*
X1807795Y461930D01*
X1807920Y462160D01*
X1808057Y462383D01*
X1808205Y462599D01*
X1808364Y462807D01*
X1808534Y463006D01*
X1808714Y463195D01*
X1808904Y463376D01*
X1809103Y463546D01*
X1809311Y463705D01*
X1809527Y463853D01*
X1809750Y463990D01*
X1809980Y464115D01*
X1810216Y464228D01*
X1810458Y464328D01*
X1810705Y464415D01*
X1810956Y464490D01*
X1811210Y464551D01*
X1811468Y464599D01*
X1811727Y464633D01*
X1811988Y464653D01*
X1812250Y464660D01*
X1817750D01*
X1818012Y464653D01*
D02*
G37*
%LPC*%
G36*
X1818250Y392160D02*
X1811750D01*
X1811619Y392157D01*
X1811489Y392146D01*
X1811359Y392129D01*
X1811230Y392105D01*
X1811103Y392075D01*
X1810977Y392038D01*
X1810854Y391994D01*
X1810733Y391944D01*
X1810615Y391888D01*
X1810500Y391825D01*
X1810388Y391757D01*
X1810280Y391683D01*
X1810177Y391603D01*
X1810077Y391518D01*
X1809982Y391428D01*
X1809892Y391333D01*
X1809807Y391233D01*
X1809727Y391129D01*
X1809653Y391022D01*
X1809585Y390910D01*
X1809523Y390795D01*
X1809466Y390677D01*
X1809416Y390556D01*
X1809372Y390433D01*
X1809335Y390307D01*
X1809305Y390180D01*
X1809281Y390051D01*
X1809264Y389921D01*
X1809253Y389791D01*
X1809250Y389660D01*
X1809253Y389529D01*
X1809264Y389399D01*
X1809281Y389269D01*
X1809305Y389140D01*
X1809335Y389013D01*
X1809372Y388887D01*
X1809416Y388764D01*
X1809466Y388643D01*
X1809523Y388525D01*
X1809585Y388410D01*
X1809653Y388298D01*
X1809727Y388190D01*
X1809807Y388087D01*
X1809892Y387987D01*
X1809982Y387892D01*
X1810077Y387802D01*
X1810177Y387717D01*
X1810280Y387637D01*
X1810388Y387563D01*
X1810500Y387495D01*
X1810615Y387433D01*
X1810733Y387376D01*
X1810854Y387326D01*
X1810977Y387282D01*
X1811103Y387245D01*
X1811230Y387215D01*
X1811359Y387191D01*
X1811489Y387174D01*
X1811619Y387163D01*
X1811750Y387160D01*
X1818250D01*
X1818381Y387163D01*
X1818511Y387174D01*
X1818641Y387191D01*
X1818770Y387215D01*
X1818897Y387245D01*
X1819023Y387282D01*
X1819146Y387326D01*
X1819267Y387376D01*
X1819385Y387433D01*
X1819500Y387495D01*
X1819612Y387563D01*
X1819720Y387637D01*
X1819823Y387717D01*
X1819923Y387802D01*
X1820018Y387892D01*
X1820108Y387987D01*
X1820193Y388087D01*
X1820273Y388190D01*
X1820347Y388298D01*
X1820415Y388410D01*
X1820477Y388525D01*
X1820534Y388643D01*
X1820584Y388764D01*
X1820628Y388887D01*
X1820665Y389013D01*
X1820695Y389140D01*
X1820719Y389269D01*
X1820736Y389399D01*
X1820747Y389529D01*
X1820750Y389660D01*
X1820747Y389791D01*
X1820736Y389921D01*
X1820719Y390051D01*
X1820695Y390180D01*
X1820665Y390307D01*
X1820628Y390433D01*
X1820584Y390556D01*
X1820534Y390677D01*
X1820477Y390795D01*
X1820415Y390910D01*
X1820347Y391022D01*
X1820273Y391129D01*
X1820193Y391233D01*
X1820108Y391333D01*
X1820018Y391428D01*
X1819923Y391518D01*
X1819823Y391603D01*
X1819720Y391683D01*
X1819612Y391757D01*
X1819500Y391825D01*
X1819385Y391888D01*
X1819267Y391944D01*
X1819146Y391994D01*
X1819023Y392038D01*
X1818897Y392075D01*
X1818770Y392105D01*
X1818641Y392129D01*
X1818511Y392146D01*
X1818381Y392157D01*
X1818250Y392160D01*
D02*
G37*
G36*
Y462160D02*
X1811750D01*
X1811619Y462157D01*
X1811489Y462146D01*
X1811359Y462129D01*
X1811230Y462105D01*
X1811103Y462075D01*
X1810977Y462038D01*
X1810854Y461994D01*
X1810733Y461944D01*
X1810615Y461888D01*
X1810500Y461825D01*
X1810388Y461757D01*
X1810280Y461683D01*
X1810177Y461603D01*
X1810077Y461518D01*
X1809982Y461428D01*
X1809892Y461333D01*
X1809807Y461233D01*
X1809727Y461129D01*
X1809653Y461022D01*
X1809585Y460910D01*
X1809523Y460795D01*
X1809466Y460677D01*
X1809416Y460556D01*
X1809372Y460433D01*
X1809335Y460307D01*
X1809305Y460180D01*
X1809281Y460051D01*
X1809264Y459921D01*
X1809253Y459791D01*
X1809250Y459660D01*
X1809253Y459529D01*
X1809264Y459399D01*
X1809281Y459269D01*
X1809305Y459140D01*
X1809335Y459013D01*
X1809372Y458887D01*
X1809416Y458764D01*
X1809466Y458643D01*
X1809523Y458525D01*
X1809585Y458410D01*
X1809653Y458298D01*
X1809727Y458190D01*
X1809807Y458087D01*
X1809892Y457987D01*
X1809982Y457892D01*
X1810077Y457802D01*
X1810177Y457717D01*
X1810280Y457637D01*
X1810388Y457563D01*
X1810500Y457495D01*
X1810615Y457433D01*
X1810733Y457376D01*
X1810854Y457326D01*
X1810977Y457282D01*
X1811103Y457245D01*
X1811230Y457215D01*
X1811359Y457191D01*
X1811489Y457174D01*
X1811619Y457163D01*
X1811750Y457160D01*
X1818250D01*
X1818381Y457163D01*
X1818511Y457174D01*
X1818641Y457191D01*
X1818770Y457215D01*
X1818897Y457245D01*
X1819023Y457282D01*
X1819146Y457326D01*
X1819267Y457376D01*
X1819385Y457433D01*
X1819500Y457495D01*
X1819612Y457563D01*
X1819720Y457637D01*
X1819823Y457717D01*
X1819923Y457802D01*
X1820018Y457892D01*
X1820108Y457987D01*
X1820193Y458087D01*
X1820273Y458190D01*
X1820347Y458298D01*
X1820415Y458410D01*
X1820477Y458525D01*
X1820534Y458643D01*
X1820584Y458764D01*
X1820628Y458887D01*
X1820665Y459013D01*
X1820695Y459140D01*
X1820719Y459269D01*
X1820736Y459399D01*
X1820747Y459529D01*
X1820750Y459660D01*
X1820747Y459791D01*
X1820736Y459921D01*
X1820719Y460051D01*
X1820695Y460180D01*
X1820665Y460307D01*
X1820628Y460433D01*
X1820584Y460556D01*
X1820534Y460677D01*
X1820477Y460795D01*
X1820415Y460910D01*
X1820347Y461022D01*
X1820273Y461129D01*
X1820193Y461233D01*
X1820108Y461333D01*
X1820018Y461428D01*
X1819923Y461518D01*
X1819823Y461603D01*
X1819720Y461683D01*
X1819612Y461757D01*
X1819500Y461825D01*
X1819385Y461888D01*
X1819267Y461944D01*
X1819146Y461994D01*
X1819023Y462038D01*
X1818897Y462075D01*
X1818770Y462105D01*
X1818641Y462129D01*
X1818511Y462146D01*
X1818381Y462157D01*
X1818250Y462160D01*
D02*
G37*
%LPD*%
D18*
X1807300Y389660D02*
X1809000D01*
X1821000Y459660D02*
X1822700D01*
D19*
X1431500Y384660D02*
D03*
X1448500D02*
D03*
D20*
X1502500Y468170D02*
D03*
Y461667D02*
D03*
Y455165D02*
D03*
Y448662D02*
D03*
Y442160D02*
D03*
Y435658D02*
D03*
Y429155D02*
D03*
X1444080D02*
D03*
Y435658D02*
D03*
Y442160D02*
D03*
Y448662D02*
D03*
Y455165D02*
D03*
Y461667D02*
D03*
Y468170D02*
D03*
D21*
X1081750Y439500D02*
D03*
D22*
X1123550Y467000D02*
D03*
Y462000D02*
D03*
Y457000D02*
D03*
Y452000D02*
D03*
Y447000D02*
D03*
Y442000D02*
D03*
Y437000D02*
D03*
Y432000D02*
D03*
Y427000D02*
D03*
Y422000D02*
D03*
Y417000D02*
D03*
Y412000D02*
D03*
X1039950D02*
D03*
Y417000D02*
D03*
Y422000D02*
D03*
Y427000D02*
D03*
Y432000D02*
D03*
Y437000D02*
D03*
Y442000D02*
D03*
Y447000D02*
D03*
Y452000D02*
D03*
Y457000D02*
D03*
Y462000D02*
D03*
Y467000D02*
D03*
D23*
X1054250Y481300D02*
D03*
X1059250D02*
D03*
X1064250D02*
D03*
X1069250D02*
D03*
X1074250D02*
D03*
X1079250D02*
D03*
X1084250D02*
D03*
X1089250D02*
D03*
X1094250D02*
D03*
X1099250D02*
D03*
X1104250D02*
D03*
X1109250D02*
D03*
Y397700D02*
D03*
X1104250D02*
D03*
X1099250D02*
D03*
X1094250D02*
D03*
X1089250D02*
D03*
X1084250D02*
D03*
X1079250D02*
D03*
X1074250D02*
D03*
X1069250D02*
D03*
X1064250D02*
D03*
X1059250D02*
D03*
X1054250D02*
D03*
D24*
X1095000Y501500D02*
D03*
X1111000D02*
D03*
X1622500Y384410D02*
D03*
X1638500D02*
D03*
X1653250Y384660D02*
D03*
X1669250D02*
D03*
D25*
X907000Y386660D02*
D03*
X919000D02*
D03*
D26*
X1788000Y411660D02*
D03*
Y418160D02*
D03*
Y424660D02*
D03*
Y431160D02*
D03*
Y437660D02*
D03*
D27*
X1815000Y414660D02*
D03*
Y434660D02*
D03*
D28*
X1061750Y502500D02*
D03*
X1073750D02*
D03*
X1478500Y384660D02*
D03*
X1466500D02*
D03*
D29*
X1514250Y397160D02*
D03*
X1495750Y387660D02*
D03*
D30*
Y406660D02*
D03*
D31*
X1642500Y465410D02*
D03*
D32*
X1665500Y403910D02*
D03*
X1642500D02*
D03*
X1619500D02*
D03*
D33*
X846500Y404660D02*
D03*
X918500D02*
D03*
X846500Y434660D02*
D03*
X918500D02*
D03*
D34*
X1435000Y403660D02*
D03*
Y415660D02*
D03*
X1445000Y403660D02*
D03*
Y415660D02*
D03*
X1517500Y443660D02*
D03*
Y455660D02*
D03*
D35*
X1517500Y430660D02*
D03*
Y418660D02*
D03*
D36*
X1757500Y427660D02*
D03*
Y411660D02*
D03*
M02*
