M48
;Layer_Color=9474304
;FILE_FORMAT=4:4
METRIC,LZ
;TYPE=PLATED
T1F00S00C0.3000
T2F00S00C0.4500
T5F00S00C1.1000
;TYPE=NON_PLATED
T6F00S00C1.0000
%
T01
X0092875Y0038666
X010055Y003935
X0111825Y0037075
X01221307Y00370919
X01220876Y0037816
X01220306Y00385419
X01220057Y0039267
X01222Y0036366
X0121825Y0034566
X012285Y0034591
X012345Y0035041
X012445Y0035391
X0124575Y0034541
X012615Y0034516
X01263Y0035366
X01278809Y00354069
X012795Y0034666
X0129725Y0034616
X0129575Y0035341
X013125Y0035366
X01312Y0034416
X0132125Y0034641
X01330177Y00345838
X0133325Y0036116
X01342812Y00332167
X01350813Y00324416
X0138975Y0029666
X0141725Y0030291
X014365Y0036066
X014785Y0037566
X0149075Y0037766
X0150425Y0037366
X015195Y0037266
X01524821Y00367668
X015195Y0035066
X01522071Y00343417
X014985Y003515
X016385Y0037241
X0166825Y0036035
X017575Y0039866
X018365Y006445
X0145725Y0062441
X01436296Y0062491
X0142825Y0063116
X01374814Y00626181
X0134375Y0061041
X01337312Y0060443
X013355Y0059716
X0122475Y0061641
X0121375Y0060941
X01201Y0062091
X01219557Y0040717
X01220057Y0039992
X014265Y0039966
X014535Y0040366
Y0041566
X014565Y0043166
X014595Y0044466
X014565Y0045266
Y0046266
X014535Y0047966
X014315Y0044866
X014905
Y0043566
X014835Y0041366
X01508Y0042241
X01525321Y00430922
X015195Y0040766
X0115825Y0042875
Y00438
X01158Y00447
X0115775Y00455
Y0046325
X01158Y0047225
X0114625Y0050525
X0109475Y0051475
X0110375Y0046625
X0109225Y0045
X0107075
Y004285
X010925Y0042825
X0106125Y00467
X01054
X01042Y0047975
X0102825Y00489
X01019Y0048225
X010138Y00467523
X0101375Y0045625
X010138Y00447272
Y00439021
Y00431271
X010135Y0050025
X009185Y0045
X01139Y0061925
X007425Y0064475
X00853Y0086
X01056Y0089541
X01068Y0088866
X010825Y0088366
X010795Y0087566
X0108975Y0086591
X01134Y0084941
X01147Y0084441
X01176Y0084116
X0117725Y0105266
X01136Y01065
X0093475Y0104775
X01204Y0104966
X0126975Y0107191
X013175Y0107616
X013045Y0088841
X01335Y0087866
X0141675Y0084091
X0143375Y0083166
X0145475Y0082341
X0150725Y0083641
X0150325Y01006
X0121525Y008585
X015925Y0087975
X017765Y0084125
X0168325Y0104975
X01614Y01243
X0140425Y01244
X012705Y0121991
X0124925Y0122566
X012035Y0124716
X012095Y0147875
X012545Y0146166
X01282Y0145216
X0136075Y0146475
X014835Y0146825
X010695Y0144375
X0114675Y01272
X0115625Y0126966
X009915Y01239
X0129075Y018055
T02
X00713Y002735
X007205
X00728
X007355
X00743
X007505
X00758
X007655
X00773
X007805
X00788
X007955
X00803
X008105
X00818
X008255
X00833
X0086725
X0087475
X0088225
X0088975
X0089725
X0090475
X0091225
X0091975
X0092725
X0093475
X00943
X009505
X00958
X009655
X00973
X009805
X00988
X009955
X01003
X010105
X01018
X010255
X01033
X010405
X01048
X010555
X01063
X010705
X01078
X010855
X01093
X011005
X01108
X011155
X01123
X011305
X01138
X011455
X01153
X011605
X01168
X011755
X01183
X011905
X01198
X012055
X01213
X012205
X01228
X012355
X01243
X012515
X012595
X012675
X0127525
X01284Y0026625
Y0025675
Y0024775
Y002395
X012925Y002735
X01303
X013105
X01318
X013255
X01333
X013405
X01348
X013555
X01363
X013705
X01378
X013855
X01393
X014005
X01408
X014155
X01423
X014305
X01438
X014455
X01453
X014605
X01468
X014755
X01483
X014905
X01498
X015055
X01513
X015205
X01528
X015355
X01543
X015505
X01558
X015655
X01573
X015805
X01588
X015955
X01603
X016105
X01618
X016255
X01633
X016405
X01648
X016555
X01663
X016705
X01678
X016855
X01693
X017005
X017325
X0174
X017475
X01755
X017625
X0177
X017775
X01785
X017925
X018
X018075
X01815
X018225
X0183
X018375
X01845
X018525
T05
X013901Y0035866
X014155
T06
X0147365Y0041176
X014635Y0048796
X014838
M30
