%TF.GenerationSoftware,Altium Limited,Altium NEXUS,2.1.9 (83)*%
G04 Layer_Color=128*
%FSLAX44Y44*%
%MOMM*%
%TF.FileFunction,Paste,Bot*%
%TF.Part,Single*%
G01*
G75*
%TA.AperFunction,SMDPad,CuDef*%
%ADD28R,1.0000X1.0000*%
%ADD39R,1.2000X1.2000*%
D28*
X1500000Y484660D02*
D03*
X1515000D02*
D03*
D39*
X1276000Y1569660D02*
D03*
Y1585660D02*
D03*
X1313000D02*
D03*
Y1569660D02*
D03*
X1217000Y1339660D02*
D03*
Y1355660D02*
D03*
X1180000D02*
D03*
Y1339660D02*
D03*
X1142000Y1148660D02*
D03*
Y1164660D02*
D03*
X1105000D02*
D03*
Y1148660D02*
D03*
X1080000Y973660D02*
D03*
Y989660D02*
D03*
X1043000D02*
D03*
Y973660D02*
D03*
X1162500Y714660D02*
D03*
Y730660D02*
D03*
X1125500D02*
D03*
Y714660D02*
D03*
X951000Y765660D02*
D03*
Y781660D02*
D03*
X914000D02*
D03*
Y765660D02*
D03*
X1409500Y1338660D02*
D03*
Y1354660D02*
D03*
X1372500D02*
D03*
Y1338660D02*
D03*
X1500500Y1137660D02*
D03*
Y1153660D02*
D03*
X1463500D02*
D03*
Y1137660D02*
D03*
X1327500Y1013660D02*
D03*
Y1029660D02*
D03*
X1290500D02*
D03*
Y1013660D02*
D03*
X1578000Y933660D02*
D03*
Y949660D02*
D03*
X1541000D02*
D03*
Y933660D02*
D03*
X1383000Y772660D02*
D03*
Y788660D02*
D03*
X1346000D02*
D03*
Y772660D02*
D03*
X1660500Y748660D02*
D03*
Y764660D02*
D03*
X1623500D02*
D03*
Y748660D02*
D03*
%TF.MD5,7aa376d4baedfa082b2ea4e8f6dfd71e*%
M02*
