%TF.GenerationSoftware,Altium Limited,Altium NEXUS,2.1.9 (83)*%
G04 Layer_Color=32896*
%FSLAX44Y44*%
%MOMM*%
%TF.FileFunction,Legend,Bot*%
%TF.Part,Single*%
G01*
G75*
%TA.AperFunction,NonConductor*%
%ADD40C,0.2000*%
%ADD41C,0.2540*%
D40*
X1324710Y1585280D02*
G03*
X1324710Y1585280I-1000J0D01*
G01*
X1228710Y1355280D02*
G03*
X1228710Y1355280I-1000J0D01*
G01*
X1153710Y1164280D02*
G03*
X1153710Y1164280I-1000J0D01*
G01*
X1091710Y989280D02*
G03*
X1091710Y989280I-1000J0D01*
G01*
X1174210Y730280D02*
G03*
X1174210Y730280I-1000J0D01*
G01*
X962710Y781280D02*
G03*
X962710Y781280I-1000J0D01*
G01*
X1421210Y1354280D02*
G03*
X1421210Y1354280I-1000J0D01*
G01*
X1512210Y1153280D02*
G03*
X1512210Y1153280I-1000J0D01*
G01*
X1339210Y1029280D02*
G03*
X1339210Y1029280I-1000J0D01*
G01*
X1589710Y949280D02*
G03*
X1589710Y949280I-1000J0D01*
G01*
X1394710Y788280D02*
G03*
X1394710Y788280I-1000J0D01*
G01*
X1672210Y764280D02*
G03*
X1672210Y764280I-1000J0D01*
G01*
D41*
X1323086Y1617721D02*
Y1602486D01*
X1315468D01*
X1312929Y1605025D01*
Y1615182D01*
X1315468Y1617721D01*
X1323086D01*
X1307851Y1602486D02*
X1302773D01*
X1305312D01*
Y1617721D01*
X1307851Y1615182D01*
X1295155D02*
X1292616Y1617721D01*
X1287538D01*
X1284998Y1615182D01*
Y1612643D01*
X1287538Y1610103D01*
X1290077D01*
X1287538D01*
X1284998Y1607564D01*
Y1605025D01*
X1287538Y1602486D01*
X1292616D01*
X1295155Y1605025D01*
X1227074Y1387851D02*
Y1372616D01*
X1219456D01*
X1216917Y1375155D01*
Y1385312D01*
X1219456Y1387851D01*
X1227074D01*
X1211839Y1372616D02*
X1206761D01*
X1209300D01*
Y1387851D01*
X1211839Y1385312D01*
X1188986Y1372616D02*
X1199143D01*
X1188986Y1382773D01*
Y1385312D01*
X1191525Y1387851D01*
X1196604D01*
X1199143Y1385312D01*
X1152144Y1196843D02*
Y1181608D01*
X1144527D01*
X1141987Y1184147D01*
Y1194304D01*
X1144527Y1196843D01*
X1152144D01*
X1136909Y1181608D02*
X1131831D01*
X1134370D01*
Y1196843D01*
X1136909Y1194304D01*
X1124213Y1181608D02*
X1119135D01*
X1121674D01*
Y1196843D01*
X1124213Y1194304D01*
X1090168Y1021837D02*
Y1006602D01*
X1082551D01*
X1080011Y1009141D01*
Y1019298D01*
X1082551Y1021837D01*
X1090168D01*
X1074933Y1006602D02*
X1069855D01*
X1072394D01*
Y1021837D01*
X1074933Y1019298D01*
X1062237D02*
X1059698Y1021837D01*
X1054620D01*
X1052080Y1019298D01*
Y1009141D01*
X1054620Y1006602D01*
X1059698D01*
X1062237Y1009141D01*
Y1019298D01*
X1172718Y762757D02*
Y747522D01*
X1165100D01*
X1162561Y750061D01*
Y760218D01*
X1165100Y762757D01*
X1172718D01*
X1157483Y750061D02*
X1154944Y747522D01*
X1149865D01*
X1147326Y750061D01*
Y760218D01*
X1149865Y762757D01*
X1154944D01*
X1157483Y760218D01*
Y757679D01*
X1154944Y755139D01*
X1147326D01*
X961136Y813811D02*
Y798576D01*
X953519D01*
X950979Y801115D01*
Y811272D01*
X953519Y813811D01*
X961136D01*
X945901Y811272D02*
X943362Y813811D01*
X938283D01*
X935744Y811272D01*
Y808733D01*
X938283Y806193D01*
X935744Y803654D01*
Y801115D01*
X938283Y798576D01*
X943362D01*
X945901Y801115D01*
Y803654D01*
X943362Y806193D01*
X945901Y808733D01*
Y811272D01*
X943362Y806193D02*
X938283D01*
X1419606Y1386835D02*
Y1371600D01*
X1411989D01*
X1409449Y1374139D01*
Y1384296D01*
X1411989Y1386835D01*
X1419606D01*
X1394214D02*
X1399293Y1384296D01*
X1404371Y1379218D01*
Y1374139D01*
X1401832Y1371600D01*
X1396753D01*
X1394214Y1374139D01*
Y1376678D01*
X1396753Y1379218D01*
X1404371D01*
X1510792Y1185667D02*
Y1170432D01*
X1503174D01*
X1500635Y1172971D01*
Y1183128D01*
X1503174Y1185667D01*
X1510792D01*
X1485400D02*
X1495557D01*
Y1178049D01*
X1490479Y1180589D01*
X1487939D01*
X1485400Y1178049D01*
Y1172971D01*
X1487939Y1170432D01*
X1493018D01*
X1495557Y1172971D01*
X1337564Y1061715D02*
Y1046480D01*
X1329946D01*
X1327407Y1049019D01*
Y1059176D01*
X1329946Y1061715D01*
X1337564D01*
X1314711Y1046480D02*
Y1061715D01*
X1322329Y1054098D01*
X1312172D01*
X1588262Y981705D02*
Y966470D01*
X1580645D01*
X1578105Y969009D01*
Y979166D01*
X1580645Y981705D01*
X1588262D01*
X1573027Y979166D02*
X1570488Y981705D01*
X1565409D01*
X1562870Y979166D01*
Y976627D01*
X1565409Y974088D01*
X1567949D01*
X1565409D01*
X1562870Y971548D01*
Y969009D01*
X1565409Y966470D01*
X1570488D01*
X1573027Y969009D01*
X1393190Y820669D02*
Y805434D01*
X1385573D01*
X1383033Y807973D01*
Y818130D01*
X1385573Y820669D01*
X1393190D01*
X1367798Y805434D02*
X1377955D01*
X1367798Y815591D01*
Y818130D01*
X1370337Y820669D01*
X1375416D01*
X1377955Y818130D01*
X1670558Y796793D02*
Y781558D01*
X1662941D01*
X1660401Y784097D01*
Y794254D01*
X1662941Y796793D01*
X1670558D01*
X1655323Y781558D02*
X1650245D01*
X1652784D01*
Y796793D01*
X1655323Y794254D01*
%TF.MD5,0865e4ca2239c535fe1047093a5ff0f9*%
M02*
