%TF.GenerationSoftware,Altium Limited,Altium NEXUS,2.1.9 (83)*%
G04 Layer_Physical_Order=2*
G04 Layer_Color=16711680*
%FSLAX44Y44*%
%MOMM*%
%TF.FileFunction,Copper,L2,Bot,Signal*%
%TF.Part,Single*%
G01*
G75*
%TA.AperFunction,Conductor*%
%ADD10C,0.1270*%
%TA.AperFunction,SMDPad,CuDef*%
%ADD28R,1.0000X1.0000*%
%TA.AperFunction,Conductor*%
%ADD29C,0.3000*%
%ADD30C,0.2540*%
%TA.AperFunction,ComponentPad*%
%ADD32C,1.6000*%
%ADD33R,1.6000X1.6000*%
%ADD34C,1.0000*%
%ADD35O,0.6500X1.3000*%
%ADD36O,1.5500X0.7750*%
%TA.AperFunction,ViaPad*%
%ADD37C,0.4500*%
%TA.AperFunction,BGAPad,CuDef*%
%ADD38C,0.8000*%
%TA.AperFunction,SMDPad,CuDef*%
%ADD39R,1.2000X1.2000*%
G36*
X1400881Y1492903D02*
Y1368322D01*
X1399611Y1367398D01*
X1399000Y1367519D01*
X1383000D01*
X1381619Y1367245D01*
X1380448Y1366462D01*
X1379665Y1365291D01*
X1379391Y1363910D01*
Y1363200D01*
X1363960D01*
Y1350698D01*
X1276910Y1263649D01*
X1275737Y1264135D01*
Y1561120D01*
X1282891D01*
Y1560410D01*
X1283165Y1559029D01*
X1283948Y1557858D01*
X1285119Y1557075D01*
X1286500Y1556801D01*
X1302500D01*
X1303881Y1557075D01*
X1305052Y1557858D01*
X1305835Y1559029D01*
X1306109Y1560410D01*
Y1561120D01*
X1309763D01*
Y1484501D01*
X1282255Y1456993D01*
X1282000Y1457044D01*
X1280131Y1456672D01*
X1278547Y1455613D01*
X1277488Y1454029D01*
X1277116Y1452160D01*
X1277488Y1450291D01*
X1278547Y1448707D01*
X1280131Y1447648D01*
X1282000Y1447276D01*
X1283869Y1447648D01*
X1285453Y1448707D01*
X1286512Y1450291D01*
X1286884Y1452160D01*
X1286833Y1452415D01*
X1315289Y1480871D01*
X1315991Y1481921D01*
X1316237Y1483160D01*
Y1561120D01*
X1321540D01*
Y1570585D01*
X1322713Y1571071D01*
X1400881Y1492903D01*
D02*
G37*
G36*
X1212881Y1366544D02*
Y1364200D01*
X1210109D01*
Y1364910D01*
X1209835Y1366291D01*
X1209052Y1367462D01*
X1207881Y1368245D01*
X1206500Y1368519D01*
X1190500D01*
X1189119Y1368245D01*
X1187948Y1367462D01*
X1187165Y1366291D01*
X1186891Y1364910D01*
Y1364200D01*
X1171460D01*
Y1357198D01*
X1163461Y1349199D01*
X1162759Y1348149D01*
X1162513Y1346910D01*
Y1273028D01*
X1161243Y1272349D01*
X1160791Y1272651D01*
X1159893Y1272829D01*
X1159703Y1273113D01*
X1158119Y1274172D01*
X1156250Y1274544D01*
X1154381Y1274172D01*
X1152797Y1273113D01*
X1151738Y1271529D01*
X1151366Y1269660D01*
X1151738Y1267791D01*
X1152797Y1266207D01*
X1154381Y1265148D01*
X1156250Y1264776D01*
X1158119Y1265148D01*
X1158938Y1265695D01*
X1229533Y1195101D01*
Y1020865D01*
X1228360Y1020379D01*
X1205048Y1043690D01*
X1205466Y1045068D01*
X1205869Y1045148D01*
X1207453Y1046207D01*
X1208512Y1047791D01*
X1208884Y1049660D01*
X1208512Y1051529D01*
X1207453Y1053113D01*
X1205869Y1054172D01*
X1204000Y1054544D01*
X1203745Y1054493D01*
X1145237Y1113001D01*
Y1140120D01*
X1150540D01*
Y1156120D01*
Y1173200D01*
X1146119D01*
Y1175500D01*
X1145806Y1177076D01*
X1144913Y1178413D01*
X1137477Y1185848D01*
X1142707Y1191078D01*
X1143600Y1192414D01*
X1143913Y1193991D01*
Y1352248D01*
X1162546Y1370881D01*
X1208544D01*
X1212881Y1366544D01*
D02*
G37*
G36*
X1298847Y1819426D02*
X1309247Y1806716D01*
X1324192Y1783053D01*
X1336769Y1751610D01*
X1336798Y1751564D01*
X1336810Y1751511D01*
X1349510Y1722301D01*
X1349525Y1722280D01*
X1349530Y1722254D01*
X1367310Y1682885D01*
X1367445Y1682696D01*
X1367526Y1682478D01*
X1398006Y1632948D01*
X1398028Y1632925D01*
X1398040Y1632894D01*
X1418360Y1601144D01*
X1418518Y1600980D01*
X1418627Y1600779D01*
X1444027Y1570299D01*
X1444047Y1570283D01*
X1444060Y1570261D01*
X1474463Y1534790D01*
X1485627Y1519905D01*
X1491717Y1507725D01*
X1493991Y1500904D01*
Y1474093D01*
X1489297Y1458837D01*
X1480914Y1449257D01*
X1480684Y1448858D01*
X1480402Y1448494D01*
X1479132Y1445954D01*
X1479064Y1445706D01*
X1478936Y1445481D01*
X1478879Y1445032D01*
X1478760Y1444596D01*
X1478792Y1444340D01*
X1478760Y1444084D01*
X1478879Y1443648D01*
X1478936Y1443199D01*
X1479064Y1442975D01*
X1479132Y1442726D01*
X1484212Y1432566D01*
X1484256Y1432509D01*
X1484277Y1432441D01*
X1498247Y1407041D01*
X1498292Y1406988D01*
X1498315Y1406923D01*
X1513555Y1381523D01*
X1513577Y1381498D01*
X1513589Y1381467D01*
X1526289Y1361147D01*
X1526355Y1361078D01*
X1526393Y1360990D01*
X1535283Y1348290D01*
X1535444Y1348136D01*
X1535557Y1347946D01*
X1569847Y1309845D01*
X1569904Y1309803D01*
X1569943Y1309743D01*
X1615566Y1262852D01*
X1627590Y1248423D01*
X1628611Y1243323D01*
Y1238825D01*
X1626039Y1236254D01*
X1621425Y1232793D01*
X1604963Y1224562D01*
X1589589Y1226927D01*
X1589580Y1226927D01*
X1589571Y1226930D01*
X1588876Y1226896D01*
X1588182Y1226866D01*
X1588174Y1226862D01*
X1588165Y1226862D01*
X1587533Y1226563D01*
X1586906Y1226271D01*
X1586899Y1226264D01*
X1586891Y1226260D01*
X1586423Y1225744D01*
X1585954Y1225232D01*
X1585951Y1225224D01*
X1585945Y1225217D01*
X1583186Y1220619D01*
X1582690D01*
X1582340Y1220550D01*
X1581982Y1220549D01*
X1581655Y1220414D01*
X1581309Y1220345D01*
X1581012Y1220146D01*
X1580682Y1220009D01*
X1580432Y1219759D01*
X1580138Y1219562D01*
X1579939Y1219265D01*
X1579687Y1219012D01*
X1579552Y1218685D01*
X1579355Y1218391D01*
X1579286Y1218041D01*
X1579149Y1217710D01*
X1579150Y1217357D01*
X1579081Y1217010D01*
X1579150Y1216660D01*
X1579151Y1216302D01*
X1580421Y1209952D01*
X1580533Y1209682D01*
X1580580Y1209393D01*
X1592010Y1178913D01*
X1592062Y1178829D01*
X1592083Y1178733D01*
X1600973Y1158413D01*
X1601212Y1158071D01*
X1601393Y1157694D01*
X1612697Y1142621D01*
X1621482Y1127561D01*
X1621672Y1127347D01*
X1621806Y1127094D01*
X1644666Y1099154D01*
X1644939Y1098931D01*
X1645161Y1098657D01*
X1674331Y1074560D01*
X1694329Y1057062D01*
X1697475Y1052868D01*
X1698245Y1049790D01*
X1696893Y1047087D01*
X1689899Y1044089D01*
X1663970D01*
X1662589Y1043815D01*
X1661418Y1043032D01*
X1657608Y1039222D01*
X1657459Y1038999D01*
X1657260Y1038819D01*
X1657071Y1038419D01*
X1656825Y1038051D01*
X1656773Y1037788D01*
X1656658Y1037545D01*
X1656637Y1037104D01*
X1656551Y1036670D01*
X1656603Y1036407D01*
X1656590Y1036139D01*
X1656739Y1035723D01*
X1656825Y1035289D01*
X1656974Y1035066D01*
X1657065Y1034813D01*
X1660804Y1028582D01*
X1670880Y1008430D01*
X1679749Y989424D01*
X1679889Y989233D01*
X1679975Y989012D01*
X1688827Y975101D01*
X1697682Y959921D01*
X1697794Y959796D01*
X1697863Y959642D01*
X1710563Y941862D01*
X1710574Y941851D01*
X1710581Y941837D01*
X1730901Y913897D01*
X1731110Y913704D01*
X1731268Y913468D01*
X1745182Y899553D01*
X1759099Y884371D01*
X1759285Y884235D01*
X1759429Y884055D01*
X1775758Y870237D01*
X1788059Y856707D01*
X1791171Y851520D01*
Y840045D01*
X1790193Y832220D01*
X1786308Y830667D01*
X1773026Y829459D01*
X1747990D01*
X1736759Y830707D01*
X1736112Y830652D01*
X1735464Y830616D01*
X1735412Y830592D01*
X1735356Y830587D01*
X1734780Y830288D01*
X1734194Y830007D01*
X1729114Y826198D01*
X1728942Y826005D01*
X1728728Y825862D01*
X1728476Y825486D01*
X1728174Y825149D01*
X1728089Y824906D01*
X1727945Y824691D01*
X1727857Y824247D01*
X1727707Y823820D01*
X1727721Y823563D01*
X1727671Y823310D01*
Y819500D01*
X1727788Y818912D01*
X1727870Y818317D01*
X1727924Y818224D01*
X1727945Y818119D01*
X1728279Y817620D01*
X1728582Y817102D01*
X1738576Y805859D01*
X1751137Y787018D01*
X1751267Y786888D01*
X1751354Y786725D01*
X1769118Y765155D01*
X1784342Y746125D01*
X1784469Y746018D01*
X1784558Y745878D01*
X1816305Y712862D01*
X1844051Y683854D01*
X1852783Y671380D01*
X1852796Y671368D01*
X1852803Y671352D01*
X1858667Y663142D01*
X1859751Y656641D01*
Y647286D01*
X1857666Y639989D01*
X1852718Y636031D01*
X1846264Y633879D01*
X1815594D01*
X1761460Y648987D01*
X1761393Y648992D01*
X1761332Y649020D01*
X1729582Y656640D01*
X1729431Y656646D01*
X1729289Y656697D01*
X1712779Y659237D01*
X1712293Y659216D01*
X1711808Y659255D01*
X1690218Y656715D01*
X1689733Y656557D01*
X1689234Y656454D01*
X1656214Y642484D01*
X1655945Y642302D01*
X1655645Y642181D01*
X1622926Y620788D01*
X1573105Y600859D01*
X1542494D01*
X1476885Y617262D01*
X1476698Y617271D01*
X1476520Y617333D01*
X1462045Y619401D01*
X1461509Y620760D01*
X1461841Y621173D01*
X1545500D01*
X1546739Y621419D01*
X1547789Y622121D01*
X1662789Y737121D01*
X1663491Y738171D01*
X1663737Y739410D01*
Y740120D01*
X1669040D01*
Y756120D01*
Y773200D01*
X1660119D01*
Y778500D01*
Y872610D01*
X1659806Y874186D01*
X1658913Y875522D01*
X1586540Y947895D01*
Y958200D01*
X1581369D01*
Y964000D01*
Y1077860D01*
X1581056Y1079436D01*
X1580163Y1080772D01*
X1509040Y1151895D01*
Y1162200D01*
X1500119D01*
Y1269110D01*
X1499806Y1270686D01*
X1498913Y1272022D01*
X1418040Y1352895D01*
Y1363200D01*
X1409119D01*
Y1494610D01*
X1408806Y1496186D01*
X1407913Y1497522D01*
X1321540Y1583895D01*
Y1594200D01*
X1306109D01*
Y1594910D01*
X1305835Y1596291D01*
X1305052Y1597462D01*
X1303881Y1598245D01*
X1302500Y1598519D01*
X1286500D01*
X1285119Y1598245D01*
X1283948Y1597462D01*
X1283165Y1596291D01*
X1282891Y1594910D01*
Y1594200D01*
X1267460D01*
Y1581698D01*
X1258961Y1573199D01*
X1258259Y1572149D01*
X1258013Y1570910D01*
Y1545910D01*
X1258259Y1544671D01*
X1258961Y1543621D01*
X1265453Y1537129D01*
Y1456945D01*
X1264279Y1456459D01*
X1259333Y1461405D01*
X1259384Y1461660D01*
X1259012Y1463529D01*
X1257953Y1465113D01*
X1256369Y1466172D01*
X1254500Y1466544D01*
X1252631Y1466172D01*
X1251047Y1465113D01*
X1249988Y1463529D01*
X1249616Y1461660D01*
X1249988Y1459791D01*
X1251047Y1458207D01*
X1252631Y1457148D01*
X1254500Y1456776D01*
X1254755Y1456827D01*
X1261643Y1449939D01*
Y1266907D01*
X1233341Y1238605D01*
X1232639Y1237555D01*
X1232393Y1236316D01*
Y1219754D01*
X1232639Y1218515D01*
X1233341Y1217465D01*
X1240963Y1209843D01*
Y1205263D01*
X1239790Y1204777D01*
X1203483Y1241083D01*
X1203989Y1242373D01*
X1205369Y1242648D01*
X1206953Y1243707D01*
X1208012Y1245291D01*
X1208384Y1247160D01*
X1208333Y1247415D01*
X1219289Y1258371D01*
X1219991Y1259421D01*
X1220237Y1260660D01*
Y1331120D01*
X1225540D01*
Y1347120D01*
Y1364200D01*
X1221119D01*
Y1368250D01*
X1220806Y1369826D01*
X1219913Y1371163D01*
X1213163Y1377913D01*
X1211826Y1378806D01*
X1210250Y1379119D01*
X1160840D01*
X1159264Y1378806D01*
X1157927Y1377913D01*
X1136882Y1356867D01*
X1135989Y1355531D01*
X1135675Y1353954D01*
Y1195697D01*
X1129946Y1189967D01*
X1099438D01*
X1097862Y1189654D01*
X1096526Y1188761D01*
X1077087Y1169323D01*
X1076194Y1167986D01*
X1075881Y1166410D01*
Y1021616D01*
X1066794Y1012529D01*
X1032250D01*
X1030674Y1012216D01*
X1029337Y1011323D01*
X1018587Y1000573D01*
X1017694Y999236D01*
X1017381Y997660D01*
Y962910D01*
X1017694Y961334D01*
X1018587Y959997D01*
X1063881Y914704D01*
Y891117D01*
X1063488Y890529D01*
X1063116Y888660D01*
X1063363Y887417D01*
X1062507Y886147D01*
X1007086D01*
X1006600Y887321D01*
X1011453Y892173D01*
X1052402D01*
X1052547Y891957D01*
X1054131Y890898D01*
X1056000Y890526D01*
X1057869Y890898D01*
X1059453Y891957D01*
X1060512Y893541D01*
X1060884Y895410D01*
X1060512Y897279D01*
X1059453Y898863D01*
X1057869Y899922D01*
X1056000Y900294D01*
X1054131Y899922D01*
X1052547Y898863D01*
X1052402Y898647D01*
X1010112D01*
X1008873Y898401D01*
X1007823Y897699D01*
X900961Y790837D01*
X900259Y789787D01*
X900013Y788548D01*
Y776410D01*
X900259Y775171D01*
X900961Y774121D01*
X905460Y769622D01*
Y757120D01*
X920891D01*
Y756410D01*
X921165Y755029D01*
X921948Y753858D01*
X923119Y753075D01*
X924500Y752801D01*
X940500D01*
X941881Y753075D01*
X943052Y753858D01*
X943835Y755029D01*
X944109Y756410D01*
Y757120D01*
X959540D01*
Y762423D01*
X989500D01*
X990739Y762669D01*
X991789Y763371D01*
X1089495Y861077D01*
X1089750Y861026D01*
X1091619Y861398D01*
X1093203Y862457D01*
X1094262Y864041D01*
X1094634Y865910D01*
X1094573Y866216D01*
X1095743Y866841D01*
X1103881Y858704D01*
Y846160D01*
X1103956Y845783D01*
Y742575D01*
Y698085D01*
X1104269Y696509D01*
X1105162Y695172D01*
X1187633Y612702D01*
X1187057Y611570D01*
X1166693Y614785D01*
X1166409Y614774D01*
X1166130Y614829D01*
X1138190D01*
X1137918Y614775D01*
X1137641Y614787D01*
X1121131Y612247D01*
X1120813Y612132D01*
X1120479Y612084D01*
X1099094Y604536D01*
X1076516Y599519D01*
X1062934Y597049D01*
X1017936D01*
X995805Y601967D01*
X976300Y610501D01*
X958929Y625390D01*
X958580Y625587D01*
X958269Y625840D01*
X936679Y637270D01*
X936438Y637342D01*
X936224Y637472D01*
X908283Y647632D01*
X907990Y647677D01*
X907715Y647787D01*
X887395Y651598D01*
X887059Y651594D01*
X886730Y651659D01*
X852440D01*
X851826Y651537D01*
X851207Y651442D01*
X823267Y641282D01*
X823136Y641203D01*
X822988Y641167D01*
X806539Y633576D01*
X791815Y627441D01*
X772430Y625017D01*
X753103Y627433D01*
X739899Y633435D01*
X729794Y640172D01*
X726576Y650898D01*
X727675Y659689D01*
X730875Y666089D01*
X754435Y685929D01*
X754512Y686025D01*
X754615Y686092D01*
X790175Y720382D01*
X790264Y720509D01*
X790386Y720603D01*
X825946Y761243D01*
X826011Y761356D01*
X826108Y761442D01*
X861668Y808432D01*
X861700Y808498D01*
X861753Y808549D01*
X882073Y837759D01*
X882087Y837792D01*
X882113Y837818D01*
X882368Y838436D01*
X882636Y839050D01*
X882637Y839086D01*
X882651Y839120D01*
X882650Y839789D01*
X882663Y840458D01*
X882649Y840491D01*
X882649Y840528D01*
X882392Y841146D01*
X882148Y841769D01*
X882123Y841795D01*
X882109Y841828D01*
X881636Y842301D01*
X881171Y842783D01*
X881138Y842797D01*
X881112Y842823D01*
X873492Y847903D01*
X873360Y847958D01*
X873251Y848050D01*
X872713Y848225D01*
X872190Y848441D01*
X872048Y848441D01*
X871912Y848485D01*
X851182Y850923D01*
X841922Y857096D01*
X840901Y869345D01*
X855066Y890593D01*
X867210Y899093D01*
X867524Y899421D01*
X867880Y899701D01*
X890710Y926335D01*
X926238Y965671D01*
X926424Y965982D01*
X926666Y966252D01*
X963496Y1028482D01*
X963665Y1028964D01*
X963886Y1029424D01*
X963897Y1029623D01*
X963963Y1029810D01*
X963935Y1030320D01*
X963963Y1030831D01*
X963897Y1031018D01*
X963886Y1031217D01*
X963665Y1031677D01*
X963496Y1032159D01*
X963363Y1032307D01*
X963277Y1032486D01*
X962897Y1032827D01*
X962556Y1033207D01*
X957476Y1037018D01*
X956932Y1037278D01*
X956404Y1037570D01*
X928732Y1046374D01*
X917141Y1052170D01*
X910939Y1061474D01*
X914112Y1074167D01*
X956554Y1115360D01*
X956742Y1115633D01*
X956983Y1115861D01*
X984923Y1155231D01*
X985002Y1155406D01*
X985126Y1155551D01*
X1019416Y1216510D01*
X1019523Y1216839D01*
X1019694Y1217139D01*
X1019740Y1217502D01*
X1019854Y1217849D01*
X1019827Y1218193D01*
X1019870Y1218536D01*
X1019774Y1218888D01*
X1019746Y1219253D01*
X1019589Y1219561D01*
X1019498Y1219894D01*
X1016958Y1224974D01*
X1016556Y1225493D01*
X1016168Y1226022D01*
X1016125Y1226048D01*
X1016095Y1226087D01*
X1015525Y1226412D01*
X1014964Y1226752D01*
X1000993Y1231832D01*
X1000866Y1231852D01*
X1000752Y1231910D01*
X984409Y1236580D01*
X979074Y1246182D01*
X976764Y1258888D01*
X977725Y1263688D01*
X1031773Y1330306D01*
X1031842Y1330438D01*
X1031949Y1330542D01*
X1064969Y1378802D01*
X1065041Y1378971D01*
X1065159Y1379112D01*
X1088019Y1421022D01*
X1088100Y1421283D01*
X1088242Y1421517D01*
X1088308Y1421949D01*
X1088439Y1422366D01*
X1088414Y1422638D01*
X1088456Y1422908D01*
X1088352Y1423333D01*
X1088313Y1423768D01*
X1088186Y1424011D01*
X1088121Y1424276D01*
X1087862Y1424629D01*
X1087659Y1425016D01*
X1087449Y1425191D01*
X1087288Y1425412D01*
X1086914Y1425638D01*
X1086578Y1425919D01*
X1086317Y1426000D01*
X1086084Y1426142D01*
X1072369Y1431129D01*
X1059885Y1437939D01*
X1056827Y1447112D01*
X1059019Y1458069D01*
X1081363Y1487862D01*
X1109278Y1523390D01*
X1109292Y1523418D01*
X1109315Y1523439D01*
X1137246Y1560256D01*
X1180416Y1616123D01*
X1180563Y1616419D01*
X1180769Y1616677D01*
X1202359Y1658587D01*
X1202375Y1658644D01*
X1202410Y1658691D01*
X1226540Y1709491D01*
X1226572Y1709619D01*
X1226643Y1709729D01*
X1255735Y1784356D01*
X1265607Y1800399D01*
X1275416Y1812660D01*
X1283225Y1819353D01*
X1291828Y1820429D01*
X1298847Y1819426D01*
D02*
G37*
G36*
X1491881Y1267403D02*
Y1167322D01*
X1490611Y1166398D01*
X1490000Y1166519D01*
X1474000D01*
X1472619Y1166245D01*
X1471448Y1165462D01*
X1470665Y1164291D01*
X1470391Y1162910D01*
Y1162200D01*
X1454960D01*
Y1156897D01*
X1360000D01*
X1358761Y1156651D01*
X1357711Y1155949D01*
X1275472Y1073710D01*
X1274055Y1074089D01*
X1273203Y1075363D01*
X1271619Y1076422D01*
X1269750Y1076794D01*
X1267881Y1076422D01*
X1267607Y1076239D01*
X1266487Y1076838D01*
Y1215303D01*
X1267757Y1215982D01*
X1268631Y1215398D01*
X1270500Y1215026D01*
X1272369Y1215398D01*
X1273953Y1216457D01*
X1275012Y1218041D01*
X1275384Y1219910D01*
X1275333Y1220165D01*
X1377091Y1321923D01*
X1404500D01*
X1405739Y1322169D01*
X1406789Y1322871D01*
X1411789Y1327871D01*
X1412491Y1328921D01*
X1412729Y1330120D01*
X1418040D01*
Y1339585D01*
X1419213Y1340071D01*
X1491881Y1267403D01*
D02*
G37*
G36*
X1133296Y1178379D02*
X1132573Y1177306D01*
X1131500Y1177519D01*
X1115500D01*
X1114119Y1177245D01*
X1112948Y1176462D01*
X1112165Y1175291D01*
X1111891Y1173910D01*
Y1173200D01*
X1096460D01*
Y1160698D01*
X1092961Y1157199D01*
X1092259Y1156149D01*
X1092013Y1154910D01*
Y1142684D01*
X1092259Y1141445D01*
X1092961Y1140395D01*
X1175052Y1058303D01*
X1174785Y1056774D01*
X1173797Y1056113D01*
X1172738Y1054529D01*
X1172366Y1052660D01*
X1172738Y1050791D01*
X1173797Y1049207D01*
X1175381Y1048148D01*
X1177250Y1047776D01*
X1177297Y1047785D01*
X1218103Y1006979D01*
Y885386D01*
X1218349Y884147D01*
X1219051Y883097D01*
X1254448Y847700D01*
Y756700D01*
X1253275Y756214D01*
X1174136Y835352D01*
X1174762Y836523D01*
X1176000Y836276D01*
X1177869Y836648D01*
X1179453Y837707D01*
X1180512Y839291D01*
X1180884Y841160D01*
X1180512Y843029D01*
X1179453Y844613D01*
X1177869Y845672D01*
X1176000Y846044D01*
X1175745Y845993D01*
X1083237Y938501D01*
Y965120D01*
X1088540D01*
Y981120D01*
Y998200D01*
X1083662D01*
X1083556Y998736D01*
X1082663Y1000073D01*
X1074325Y1008410D01*
X1082913Y1016997D01*
X1083806Y1018334D01*
X1084119Y1019910D01*
Y1164704D01*
X1101144Y1181729D01*
X1129946D01*
X1133296Y1178379D01*
D02*
G37*
G36*
X1573131Y962294D02*
Y958200D01*
X1571109D01*
Y958910D01*
X1570835Y960291D01*
X1570052Y961462D01*
X1568881Y962245D01*
X1567500Y962519D01*
X1551500D01*
X1550119Y962245D01*
X1548948Y961462D01*
X1548165Y960291D01*
X1547891Y958910D01*
Y958200D01*
X1532460D01*
Y945698D01*
X1408909Y822147D01*
X1348837D01*
X1348351Y823321D01*
X1362703Y837673D01*
X1413152D01*
X1413297Y837457D01*
X1414881Y836398D01*
X1416750Y836026D01*
X1418619Y836398D01*
X1420203Y837457D01*
X1421262Y839041D01*
X1421634Y840910D01*
X1421262Y842779D01*
X1420203Y844363D01*
X1418619Y845422D01*
X1416750Y845794D01*
X1414881Y845422D01*
X1413297Y844363D01*
X1413152Y844147D01*
X1361362D01*
X1360123Y843901D01*
X1359073Y843199D01*
X1326866Y810992D01*
X1325692Y811478D01*
Y956705D01*
X1325446Y957944D01*
X1324744Y958994D01*
X1293487Y990251D01*
Y1005120D01*
X1297391D01*
Y1004410D01*
X1297665Y1003029D01*
X1298448Y1001858D01*
X1299619Y1001075D01*
X1301000Y1000801D01*
X1317000D01*
X1318381Y1001075D01*
X1319552Y1001858D01*
X1320335Y1003029D01*
X1320609Y1004410D01*
Y1005120D01*
X1331462D01*
X1331763Y1004819D01*
Y882258D01*
X1331547Y882113D01*
X1330488Y880529D01*
X1330116Y878660D01*
X1330488Y876791D01*
X1331547Y875207D01*
X1333131Y874148D01*
X1335000Y873776D01*
X1336869Y874148D01*
X1338453Y875207D01*
X1339512Y876791D01*
X1339884Y878660D01*
X1339512Y880529D01*
X1338453Y882113D01*
X1338237Y882258D01*
Y1006160D01*
X1337991Y1007399D01*
X1337289Y1008449D01*
X1336040Y1009698D01*
Y1021041D01*
X1514384D01*
X1573131Y962294D01*
D02*
G37*
G36*
X1651881Y870904D02*
Y790097D01*
X1650611Y789419D01*
X1650166Y789716D01*
X1648590Y790029D01*
X1522206D01*
X1476413Y835823D01*
X1475076Y836716D01*
X1473500Y837029D01*
X1449000D01*
X1447424Y836716D01*
X1446087Y835823D01*
X1439253Y828989D01*
X1438262Y829791D01*
X1438634Y831660D01*
X1438583Y831915D01*
X1447841Y841173D01*
X1480159D01*
X1499211Y822121D01*
X1500261Y821419D01*
X1501500Y821173D01*
X1508250D01*
X1509489Y821419D01*
X1510539Y822121D01*
X1580289Y891871D01*
X1580991Y892921D01*
X1581237Y894160D01*
Y925120D01*
X1586540D01*
Y934585D01*
X1587713Y935071D01*
X1651881Y870904D01*
D02*
G37*
G36*
X1460376Y542770D02*
X1463131Y540015D01*
X1465231Y537682D01*
X1466640Y535870D01*
X1468926Y530841D01*
X1472142Y522677D01*
X1472143Y522675D01*
X1472143Y522673D01*
X1472525Y522081D01*
X1472904Y521493D01*
X1472906Y521491D01*
X1472907Y521489D01*
X1473484Y521090D01*
X1474061Y520690D01*
X1474063Y520690D01*
X1474065Y520688D01*
X1474753Y520540D01*
X1475437Y520391D01*
X1475439Y520392D01*
X1475441Y520391D01*
X1476138Y520518D01*
X1476823Y520642D01*
X1476825Y520643D01*
X1476827Y520643D01*
X1477426Y521030D01*
X1478007Y521404D01*
X1478009Y521405D01*
X1478011Y521407D01*
X1478413Y521989D01*
X1478810Y522561D01*
X1478810Y522563D01*
X1478812Y522565D01*
X1481945Y529795D01*
X1483966Y532939D01*
X1485703Y535256D01*
X1488570Y536942D01*
X1491801Y537112D01*
X1493999Y536435D01*
X1496355Y534986D01*
X1498354Y532588D01*
X1499293Y531179D01*
X1499543Y529430D01*
X1497895Y525221D01*
X1494045Y521156D01*
X1489481Y517467D01*
X1489358Y517319D01*
X1489198Y517212D01*
X1488911Y516782D01*
X1488580Y516385D01*
X1488522Y516201D01*
X1488415Y516041D01*
X1488315Y515534D01*
X1488161Y515040D01*
X1488178Y514849D01*
X1488141Y514660D01*
X1488242Y514153D01*
X1488289Y513638D01*
X1488378Y513467D01*
X1488415Y513279D01*
X1488703Y512849D01*
X1488943Y512391D01*
X1489091Y512268D01*
X1489198Y512108D01*
X1489628Y511820D01*
X1490025Y511489D01*
X1490209Y511432D01*
X1490369Y511325D01*
X1490876Y511225D01*
X1491370Y511071D01*
X1491561Y511088D01*
X1491750Y511051D01*
X1531391D01*
Y431472D01*
X1530121Y431347D01*
X1529834Y432790D01*
X1528775Y434375D01*
X1527190Y435434D01*
X1525321Y435805D01*
X1523452Y435434D01*
X1521868Y434375D01*
X1520809Y432790D01*
X1520501Y431239D01*
X1496084Y406822D01*
X1481258D01*
X1480612Y408016D01*
X1481071Y408978D01*
X1481631Y409148D01*
X1483500Y408776D01*
X1485369Y409148D01*
X1486953Y410207D01*
X1488012Y411791D01*
X1488384Y413660D01*
X1488012Y415529D01*
X1486953Y417113D01*
X1486737Y417258D01*
Y420960D01*
X1486491Y422199D01*
X1486276Y422521D01*
X1486372Y422753D01*
X1486596Y424460D01*
X1486372Y426167D01*
X1485713Y427758D01*
X1484664Y429124D01*
X1483383Y430108D01*
X1483293Y430789D01*
Y430830D01*
X1483383Y431512D01*
X1484664Y432496D01*
X1485713Y433862D01*
X1486372Y435453D01*
X1486596Y437160D01*
X1486372Y438867D01*
X1485713Y440458D01*
X1484664Y441824D01*
X1483383Y442808D01*
X1483293Y443489D01*
Y443531D01*
X1483383Y444212D01*
X1484664Y445196D01*
X1485125Y445796D01*
X1486687Y445745D01*
X1487047Y445207D01*
X1488631Y444148D01*
X1490500Y443776D01*
X1492369Y444148D01*
X1493953Y445207D01*
X1495012Y446791D01*
X1495384Y448660D01*
X1495333Y448915D01*
X1517289Y470871D01*
X1517991Y471921D01*
X1518237Y473160D01*
Y477120D01*
X1522540D01*
Y492200D01*
X1501270D01*
Y484660D01*
Y477120D01*
X1511763D01*
Y474501D01*
X1490755Y453493D01*
X1490500Y453544D01*
X1488631Y453172D01*
X1487417Y452361D01*
X1486189Y452548D01*
X1485906Y452692D01*
X1485713Y453158D01*
X1484664Y454524D01*
X1483383Y455508D01*
X1483293Y456189D01*
Y456231D01*
X1483383Y456912D01*
X1484664Y457896D01*
X1485713Y459262D01*
X1486372Y460853D01*
X1486596Y462560D01*
X1486372Y464267D01*
X1485713Y465858D01*
X1484664Y467224D01*
X1483383Y468208D01*
X1483293Y468890D01*
Y468931D01*
X1483383Y469612D01*
X1484664Y470596D01*
X1485713Y471962D01*
X1486372Y473553D01*
X1486596Y475260D01*
X1486372Y476967D01*
X1485713Y478558D01*
X1485178Y479255D01*
X1485739Y480610D01*
X1485768Y480614D01*
X1487603Y481374D01*
X1489178Y482582D01*
X1490386Y484157D01*
X1491146Y485992D01*
X1491190Y486326D01*
X1492460Y486243D01*
Y485930D01*
X1498730D01*
Y492200D01*
X1492460D01*
Y489677D01*
X1491190Y489594D01*
X1491146Y489928D01*
X1490386Y491763D01*
X1489178Y493338D01*
X1487603Y494546D01*
X1485768Y495306D01*
X1483800Y495565D01*
X1481832Y495306D01*
X1479998Y494546D01*
X1478422Y493338D01*
X1477214Y491763D01*
X1476454Y489928D01*
X1476195Y487960D01*
X1476454Y485992D01*
X1477214Y484157D01*
X1478180Y482898D01*
X1478207Y482602D01*
X1478039Y481846D01*
X1477827Y481439D01*
X1476702Y480973D01*
X1475336Y479924D01*
X1474352Y478643D01*
X1473671Y478553D01*
X1473629D01*
X1472948Y478643D01*
X1471964Y479924D01*
X1470598Y480973D01*
X1469473Y481439D01*
X1469261Y481846D01*
X1469093Y482602D01*
X1469120Y482898D01*
X1470086Y484157D01*
X1470846Y485992D01*
X1471105Y487960D01*
X1470846Y489928D01*
X1470086Y491763D01*
X1468878Y493338D01*
X1467303Y494546D01*
X1465468Y495306D01*
X1463500Y495565D01*
X1461532Y495306D01*
X1459698Y494546D01*
X1458122Y493338D01*
X1456914Y491763D01*
X1456154Y489928D01*
X1455895Y487960D01*
X1456154Y485992D01*
X1456914Y484157D01*
X1458122Y482582D01*
X1459698Y481374D01*
X1461532Y480614D01*
X1461561Y480610D01*
X1462122Y479255D01*
X1461587Y478558D01*
X1460928Y476967D01*
X1460871Y476530D01*
X1467300D01*
Y473990D01*
X1460871D01*
X1460928Y473553D01*
X1461587Y471962D01*
X1462636Y470596D01*
X1463917Y469612D01*
X1464007Y468931D01*
Y468890D01*
X1463917Y468208D01*
X1462636Y467224D01*
X1461587Y465858D01*
X1461583Y465847D01*
X1460131D01*
X1459953Y466113D01*
X1458369Y467172D01*
X1456500Y467544D01*
X1454631Y467172D01*
X1453047Y466113D01*
X1451988Y464529D01*
X1451616Y462660D01*
X1451988Y460791D01*
X1453047Y459207D01*
X1454305Y458366D01*
X1454377Y458104D01*
Y457216D01*
X1454305Y456954D01*
X1453047Y456113D01*
X1451988Y454529D01*
X1451616Y452660D01*
X1451667Y452405D01*
X1451211Y451949D01*
X1450509Y450899D01*
X1450263Y449660D01*
Y441660D01*
X1450509Y440421D01*
X1451211Y439371D01*
X1453791Y436791D01*
X1453666Y435527D01*
X1453047Y435113D01*
X1452902Y434897D01*
X1449841D01*
X1436333Y448405D01*
X1436384Y448660D01*
X1436012Y450529D01*
X1434953Y452113D01*
X1433369Y453172D01*
X1431500Y453544D01*
X1429631Y453172D01*
X1428047Y452113D01*
X1426988Y450529D01*
X1426616Y448660D01*
X1426988Y446791D01*
X1428047Y445207D01*
X1429631Y444148D01*
X1431500Y443776D01*
X1431755Y443827D01*
X1446211Y429371D01*
X1447261Y428669D01*
X1448500Y428423D01*
X1452902D01*
X1453047Y428207D01*
X1454631Y427148D01*
X1456500Y426776D01*
X1458369Y427148D01*
X1459953Y428207D01*
X1461012Y429791D01*
X1461384Y431660D01*
X1461282Y432174D01*
X1462469Y432712D01*
X1462636Y432496D01*
X1463917Y431512D01*
X1464007Y430830D01*
Y430789D01*
X1463917Y430108D01*
X1462636Y429124D01*
X1461587Y427758D01*
X1460928Y426167D01*
X1460704Y424460D01*
X1460928Y422753D01*
X1461587Y421162D01*
X1462636Y419796D01*
X1462990Y419524D01*
X1463100Y417838D01*
X1459370Y414108D01*
X1458200Y414734D01*
X1458384Y415660D01*
X1458012Y417529D01*
X1456953Y419113D01*
X1455369Y420172D01*
X1453500Y420544D01*
X1451631Y420172D01*
X1450047Y419113D01*
X1449902Y418897D01*
X1430500D01*
X1429261Y418651D01*
X1428211Y417949D01*
X1417379Y407117D01*
X1416700Y407245D01*
X1416109Y407586D01*
Y511051D01*
X1458500D01*
X1458824Y511115D01*
X1459153Y511110D01*
X1459508Y511251D01*
X1459881Y511325D01*
X1460156Y511509D01*
X1460462Y511631D01*
X1460735Y511896D01*
X1461052Y512108D01*
X1461236Y512382D01*
X1461472Y512612D01*
X1461623Y512962D01*
X1461835Y513279D01*
X1461899Y513602D01*
X1462030Y513905D01*
X1462035Y514286D01*
X1462109Y514660D01*
X1462045Y514984D01*
X1462050Y515313D01*
X1461909Y515668D01*
X1461835Y516041D01*
X1461651Y516316D01*
X1461529Y516622D01*
X1461264Y516895D01*
X1461052Y517212D01*
X1460778Y517396D01*
X1460548Y517632D01*
X1453069Y522785D01*
X1449434Y526421D01*
X1446839Y529615D01*
X1446151Y532708D01*
X1446537Y536374D01*
X1447576Y538972D01*
X1449299Y540695D01*
X1451669Y542275D01*
X1454282Y543280D01*
X1456648Y543787D01*
X1460376Y542770D01*
D02*
G37*
G36*
X1068724Y558289D02*
X1071082Y557564D01*
X1072597Y556048D01*
X1074604Y552481D01*
X1074742Y552319D01*
X1074831Y552127D01*
X1076577Y549726D01*
X1078163Y545876D01*
X1078167Y545869D01*
X1078168Y545862D01*
X1080668Y539862D01*
X1081015Y539345D01*
X1081338Y538812D01*
X1081406Y538763D01*
X1081453Y538693D01*
X1081972Y538348D01*
X1082474Y537979D01*
X1082555Y537959D01*
X1082626Y537912D01*
X1083236Y537792D01*
X1083841Y537644D01*
X1083925Y537657D01*
X1084007Y537641D01*
X1084618Y537763D01*
X1085234Y537858D01*
X1085306Y537902D01*
X1085388Y537918D01*
X1085905Y538265D01*
X1086438Y538588D01*
X1086488Y538656D01*
X1086557Y538703D01*
X1086902Y539222D01*
X1087271Y539724D01*
X1088921Y543261D01*
X1090545Y545812D01*
X1090631Y546033D01*
X1090771Y546224D01*
X1092286Y549470D01*
X1094210Y551570D01*
X1096492Y552711D01*
X1100951Y553082D01*
X1104532Y551650D01*
X1107510Y548870D01*
X1108514Y547435D01*
X1108851Y544408D01*
X1108534Y542826D01*
X1107411Y540204D01*
X1104176Y536538D01*
X1099074Y531906D01*
X1099021Y531835D01*
X1098948Y531786D01*
X1098604Y531271D01*
X1098236Y530774D01*
X1098214Y530688D01*
X1098165Y530615D01*
X1098045Y530008D01*
X1097895Y529408D01*
X1097908Y529320D01*
X1097891Y529234D01*
X1098011Y528627D01*
X1098103Y528015D01*
X1098148Y527939D01*
X1098166Y527852D01*
X1098509Y527338D01*
X1098828Y526808D01*
X1098899Y526755D01*
X1098948Y526681D01*
X1099462Y526338D01*
X1099960Y525970D01*
X1100045Y525948D01*
X1100119Y525899D01*
X1100726Y525778D01*
X1101326Y525629D01*
X1101413Y525642D01*
X1101500Y525624D01*
X1160492Y525626D01*
X1161390Y524728D01*
X1161391Y477093D01*
X1160270Y476494D01*
X1159869Y476762D01*
X1158000Y477134D01*
X1156131Y476762D01*
X1154547Y475703D01*
X1153488Y474119D01*
X1153116Y472250D01*
X1153167Y471995D01*
X1134781Y453609D01*
X1134079Y452559D01*
X1133833Y451320D01*
Y370085D01*
X1134079Y368846D01*
X1134781Y367796D01*
X1153091Y349486D01*
X1154141Y348784D01*
X1155380Y348538D01*
X1199880D01*
X1201119Y348784D01*
X1202169Y349486D01*
X1215908Y363225D01*
X1217286Y362807D01*
X1217488Y361791D01*
X1218547Y360207D01*
X1219868Y359324D01*
X1220265Y357925D01*
X1215961Y353621D01*
X1215259Y352571D01*
X1215013Y351332D01*
Y349258D01*
X1214797Y349113D01*
X1213738Y347529D01*
X1213366Y345660D01*
X1213738Y343791D01*
X1214105Y343242D01*
X1213426Y341972D01*
X1141386D01*
X1064487Y418871D01*
Y463402D01*
X1064703Y463547D01*
X1065762Y465131D01*
X1066134Y467000D01*
X1065762Y468869D01*
X1064703Y470453D01*
X1063119Y471512D01*
X1061250Y471884D01*
X1059381Y471512D01*
X1057797Y470453D01*
X1057453D01*
X1055869Y471512D01*
X1054000Y471884D01*
X1052131Y471512D01*
X1050547Y470453D01*
X1049488Y468869D01*
X1049116Y467000D01*
X1049488Y465131D01*
X1050547Y463547D01*
X1050763Y463402D01*
Y423478D01*
X1049589Y422992D01*
X1035417Y437165D01*
Y447070D01*
X1035171Y448309D01*
X1034469Y449359D01*
X1018257Y465572D01*
X1018312Y465654D01*
X1018683Y467523D01*
X1018318Y469361D01*
X1018278Y469590D01*
X1019009Y470631D01*
X1023250D01*
X1024826Y470944D01*
X1026163Y471837D01*
X1036344Y482018D01*
X1037425Y481304D01*
X1037116Y479750D01*
X1037488Y477881D01*
X1038547Y476297D01*
X1040131Y475238D01*
X1042000Y474866D01*
X1043869Y475238D01*
X1045453Y476297D01*
X1045598Y476513D01*
X1084909D01*
X1097461Y463961D01*
X1098511Y463259D01*
X1099750Y463013D01*
X1100152D01*
X1100297Y462797D01*
X1101881Y461738D01*
X1103750Y461366D01*
X1105619Y461738D01*
X1107203Y462797D01*
X1108262Y464381D01*
X1108634Y466250D01*
X1108262Y468119D01*
X1107203Y469703D01*
X1105619Y470762D01*
X1103750Y471134D01*
X1101881Y470762D01*
X1100643Y469935D01*
X1088539Y482039D01*
X1087489Y482741D01*
X1086250Y482987D01*
X1045598D01*
X1045453Y483203D01*
X1043869Y484262D01*
X1042000Y484634D01*
X1040446Y484325D01*
X1039732Y485406D01*
X1064956Y510631D01*
X1092293D01*
X1092881Y510238D01*
X1094750Y509866D01*
X1096619Y510238D01*
X1098203Y511297D01*
X1099262Y512881D01*
X1099634Y514750D01*
X1099262Y516619D01*
X1098203Y518203D01*
X1096619Y519262D01*
X1094750Y519634D01*
X1092881Y519262D01*
X1092293Y518869D01*
X1063250D01*
X1061674Y518556D01*
X1060337Y517663D01*
X1033890Y491215D01*
X1032356Y491477D01*
X1031703Y492453D01*
X1030119Y493512D01*
X1028250Y493884D01*
X1026381Y493512D01*
X1024797Y492453D01*
X1024652Y492237D01*
X1013605D01*
X1012366Y491991D01*
X1011316Y491289D01*
X999463Y479436D01*
X998289Y479922D01*
Y525621D01*
X1065000Y525623D01*
X1065487Y525720D01*
X1065981Y525759D01*
X1066172Y525856D01*
X1066381Y525898D01*
X1066794Y526174D01*
X1067236Y526399D01*
X1067374Y526562D01*
X1067552Y526680D01*
X1067828Y527093D01*
X1068150Y527470D01*
X1068216Y527674D01*
X1068335Y527851D01*
X1068431Y528338D01*
X1068585Y528810D01*
X1068568Y529023D01*
X1068609Y529233D01*
X1068513Y529719D01*
X1068474Y530214D01*
X1068376Y530404D01*
X1068335Y530614D01*
X1068059Y531026D01*
X1067834Y531468D01*
X1066834Y532736D01*
X1066769Y532791D01*
X1066727Y532865D01*
X1066235Y533246D01*
X1065762Y533650D01*
X1065682Y533676D01*
X1065614Y533728D01*
X1063138Y534966D01*
X1060802Y537302D01*
X1060539Y537478D01*
X1060320Y537707D01*
X1058138Y539234D01*
X1055680Y541897D01*
X1054117Y544633D01*
X1053393Y547346D01*
X1053578Y549930D01*
X1054186Y552362D01*
X1055091Y554535D01*
X1056845Y556464D01*
X1059129Y557918D01*
X1061419Y559253D01*
X1064204Y559581D01*
X1068724Y558289D01*
D02*
G37*
G36*
X1627450Y524651D02*
X1629629Y523017D01*
X1632695Y519950D01*
X1634729Y516900D01*
X1636576Y511359D01*
X1636651Y511227D01*
X1636682Y511078D01*
X1639682Y504078D01*
X1639849Y503836D01*
X1639955Y503562D01*
X1640243Y503261D01*
X1640479Y502917D01*
X1640725Y502757D01*
X1640928Y502545D01*
X1641310Y502376D01*
X1641660Y502149D01*
X1641948Y502095D01*
X1642217Y501977D01*
X1642634Y501967D01*
X1643044Y501891D01*
X1643331Y501952D01*
X1643625Y501945D01*
X1644014Y502096D01*
X1644422Y502183D01*
X1644664Y502349D01*
X1644938Y502455D01*
X1645239Y502743D01*
X1645583Y502979D01*
X1645743Y503225D01*
X1645956Y503428D01*
X1646124Y503810D01*
X1646351Y504160D01*
X1646405Y504448D01*
X1646523Y504717D01*
X1646965Y506705D01*
X1647999Y509393D01*
X1649810Y512336D01*
X1651397Y514830D01*
X1652831Y516468D01*
X1654786Y518246D01*
X1658628Y519294D01*
X1660881Y518843D01*
X1662867Y517579D01*
X1665319Y515536D01*
X1666472Y513889D01*
X1667240Y511431D01*
X1666862Y510044D01*
X1665034Y506388D01*
X1661886Y503240D01*
X1657599Y500058D01*
X1657420Y499860D01*
X1657198Y499712D01*
X1656951Y499343D01*
X1656653Y499015D01*
X1656564Y498763D01*
X1656415Y498541D01*
X1656329Y498106D01*
X1656180Y497688D01*
X1656193Y497422D01*
X1656141Y497160D01*
X1656227Y496725D01*
X1656249Y496282D01*
X1656363Y496041D01*
X1656415Y495779D01*
X1656662Y495410D01*
X1656852Y495009D01*
X1657050Y494830D01*
X1657198Y494608D01*
X1657567Y494361D01*
X1657896Y494063D01*
X1658147Y493974D01*
X1658369Y493825D01*
X1658804Y493739D01*
X1659222Y493590D01*
X1659488Y493603D01*
X1659750Y493551D01*
X1691391D01*
Y375000D01*
X1691665Y373619D01*
X1692448Y372448D01*
X1693619Y371665D01*
X1695000Y371391D01*
X1737500D01*
X1738881Y371665D01*
X1740052Y372448D01*
X1740835Y373619D01*
X1741109Y375000D01*
Y473551D01*
X1768250D01*
X1768734Y473647D01*
X1769225Y473685D01*
X1769418Y473783D01*
X1769631Y473825D01*
X1770041Y474099D01*
X1770481Y474323D01*
X1770622Y474487D01*
X1770802Y474608D01*
X1771076Y475018D01*
X1771397Y475392D01*
X1771464Y475598D01*
X1771585Y475779D01*
X1771681Y476262D01*
X1771834Y476731D01*
X1771817Y476947D01*
X1771859Y477160D01*
X1771763Y477644D01*
X1771725Y478135D01*
X1771627Y478329D01*
X1771585Y478541D01*
X1771311Y478951D01*
X1771087Y479391D01*
X1770923Y479532D01*
X1770802Y479712D01*
X1770392Y479986D01*
X1770018Y480307D01*
X1764892Y483187D01*
X1761755Y486099D01*
X1758805Y489049D01*
X1756899Y491908D01*
X1756137Y495720D01*
X1756315Y498030D01*
X1756971Y499998D01*
X1758444Y501839D01*
X1760924Y504320D01*
X1763874Y505242D01*
X1766861Y505802D01*
X1769244Y505166D01*
X1772140Y503236D01*
X1774551Y500623D01*
X1778228Y493959D01*
X1781893Y484675D01*
X1781897Y484668D01*
X1781899Y484660D01*
X1782279Y484076D01*
X1782655Y483491D01*
X1782662Y483486D01*
X1782667Y483479D01*
X1783241Y483085D01*
X1783813Y482689D01*
X1783821Y482687D01*
X1783828Y482682D01*
X1784509Y482538D01*
X1785190Y482391D01*
X1785198Y482393D01*
X1785206Y482391D01*
X1785890Y482518D01*
X1786575Y482643D01*
X1786582Y482647D01*
X1786591Y482649D01*
X1787173Y483027D01*
X1787759Y483405D01*
X1787764Y483412D01*
X1787771Y483417D01*
X1788164Y483990D01*
X1788561Y484563D01*
X1788563Y484571D01*
X1788568Y484578D01*
X1791504Y491431D01*
X1793050Y494301D01*
X1795476Y497536D01*
X1797667Y498884D01*
X1799567Y499359D01*
X1801932Y499190D01*
X1804781Y498050D01*
X1807248Y496342D01*
X1809164Y493904D01*
X1809520Y492360D01*
X1808684Y489516D01*
X1806887Y486721D01*
X1803998Y483610D01*
X1799657Y479906D01*
X1799568Y479792D01*
X1799448Y479712D01*
X1799134Y479243D01*
X1798785Y478800D01*
X1798746Y478661D01*
X1798665Y478541D01*
X1798555Y477988D01*
X1798402Y477445D01*
X1798419Y477301D01*
X1798391Y477160D01*
X1798501Y476607D01*
X1798567Y476046D01*
X1798637Y475920D01*
X1798665Y475779D01*
X1798979Y475310D01*
X1799254Y474817D01*
X1799368Y474728D01*
X1799448Y474608D01*
X1799917Y474294D01*
X1800360Y473945D01*
X1800499Y473906D01*
X1800619Y473825D01*
X1801172Y473715D01*
X1801715Y473562D01*
X1801859Y473579D01*
X1802000Y473551D01*
X1826391D01*
Y461268D01*
X1825121Y461143D01*
X1824918Y462163D01*
X1823500Y464285D01*
X1821378Y465703D01*
X1818875Y466201D01*
X1816270D01*
Y459660D01*
Y453119D01*
X1818875D01*
X1821378Y453617D01*
X1823500Y455035D01*
X1824918Y457157D01*
X1825121Y458177D01*
X1826391Y458052D01*
Y391268D01*
X1825121Y391143D01*
X1824918Y392163D01*
X1823500Y394285D01*
X1821378Y395703D01*
X1818875Y396201D01*
X1816270D01*
Y389660D01*
Y383119D01*
X1818875D01*
X1821378Y383617D01*
X1823500Y385035D01*
X1824918Y387157D01*
X1825121Y388177D01*
X1826391Y388052D01*
Y375000D01*
X1826665Y373619D01*
X1827448Y372448D01*
X1828619Y371665D01*
X1830000Y371391D01*
X1859751D01*
Y237109D01*
X1596609D01*
Y263750D01*
X1596335Y265131D01*
X1595552Y266302D01*
X1594381Y267085D01*
X1593000Y267359D01*
X1573500D01*
X1572119Y267085D01*
X1570948Y266302D01*
X1570165Y265131D01*
X1569891Y263750D01*
Y237109D01*
X1289575D01*
X1288661Y238379D01*
X1288884Y239500D01*
X1288512Y241369D01*
X1287538Y242826D01*
X1287399Y243269D01*
Y243981D01*
X1287538Y244424D01*
X1288512Y245881D01*
X1288884Y247750D01*
X1288512Y249619D01*
X1287453Y251203D01*
X1286837Y251615D01*
Y252885D01*
X1287453Y253297D01*
X1288512Y254881D01*
X1288884Y256750D01*
X1288512Y258619D01*
X1287453Y260203D01*
X1286656Y260736D01*
Y262264D01*
X1287453Y262797D01*
X1288512Y264381D01*
X1288884Y266250D01*
X1288512Y268119D01*
X1287453Y269703D01*
X1285869Y270762D01*
X1284000Y271134D01*
X1282131Y270762D01*
X1280547Y269703D01*
X1279488Y268119D01*
X1279116Y266250D01*
X1279488Y264381D01*
X1280547Y262797D01*
X1281344Y262264D01*
Y260736D01*
X1280547Y260203D01*
X1279488Y258619D01*
X1279116Y256750D01*
X1279488Y254881D01*
X1280547Y253297D01*
X1281163Y252885D01*
Y251615D01*
X1280547Y251203D01*
X1279488Y249619D01*
X1279116Y247750D01*
X1279488Y245881D01*
X1280461Y244424D01*
X1280601Y243981D01*
Y243269D01*
X1280461Y242826D01*
X1279488Y241369D01*
X1279116Y239500D01*
X1279339Y238379D01*
X1278425Y237109D01*
X1017109D01*
Y263750D01*
X1016835Y265131D01*
X1016052Y266302D01*
X1014881Y267085D01*
X1013500Y267359D01*
X994000D01*
X992619Y267085D01*
X991448Y266302D01*
X990665Y265131D01*
X990391Y263750D01*
Y237109D01*
X709277D01*
X708382Y238011D01*
X708603Y269348D01*
X709876Y269827D01*
X711131Y268988D01*
X713000Y268616D01*
X714869Y268988D01*
X715807Y269615D01*
X716750Y269943D01*
X717692Y269615D01*
X718631Y268988D01*
X720500Y268616D01*
X722369Y268988D01*
X723307Y269615D01*
X724250Y269943D01*
X725192Y269615D01*
X726131Y268988D01*
X728000Y268616D01*
X729869Y268988D01*
X730807Y269615D01*
X731750Y269943D01*
X732692Y269615D01*
X733631Y268988D01*
X735500Y268616D01*
X737369Y268988D01*
X738307Y269615D01*
X739250Y269943D01*
X740192Y269615D01*
X741131Y268988D01*
X743000Y268616D01*
X744869Y268988D01*
X745807Y269615D01*
X746750Y269943D01*
X747692Y269615D01*
X748631Y268988D01*
X750500Y268616D01*
X752369Y268988D01*
X753307Y269615D01*
X754250Y269943D01*
X755192Y269615D01*
X756131Y268988D01*
X758000Y268616D01*
X759869Y268988D01*
X760807Y269615D01*
X761750Y269943D01*
X762692Y269615D01*
X763631Y268988D01*
X765500Y268616D01*
X767369Y268988D01*
X768307Y269615D01*
X769250Y269943D01*
X770192Y269615D01*
X771131Y268988D01*
X773000Y268616D01*
X774869Y268988D01*
X775807Y269615D01*
X776750Y269943D01*
X777692Y269615D01*
X778631Y268988D01*
X780500Y268616D01*
X782369Y268988D01*
X783307Y269615D01*
X784250Y269943D01*
X785192Y269615D01*
X786131Y268988D01*
X788000Y268616D01*
X789869Y268988D01*
X790807Y269615D01*
X791750Y269943D01*
X792692Y269615D01*
X793631Y268988D01*
X795500Y268616D01*
X797369Y268988D01*
X798307Y269615D01*
X799250Y269943D01*
X800192Y269615D01*
X801131Y268988D01*
X803000Y268616D01*
X804869Y268988D01*
X805807Y269615D01*
X806750Y269943D01*
X807692Y269615D01*
X808631Y268988D01*
X810500Y268616D01*
X812369Y268988D01*
X813307Y269615D01*
X814250Y269943D01*
X815192Y269615D01*
X816131Y268988D01*
X818000Y268616D01*
X819869Y268988D01*
X820808Y269615D01*
X821750Y269943D01*
X822692Y269615D01*
X823631Y268988D01*
X825500Y268616D01*
X827369Y268988D01*
X828953Y270047D01*
X829547D01*
X831131Y268988D01*
X833000Y268616D01*
X834869Y268988D01*
X836453Y270047D01*
X836988Y270847D01*
X838448Y270948D01*
X839619Y270165D01*
X841000Y269891D01*
X860500D01*
X861881Y270165D01*
X862055Y270281D01*
X862695Y270695D01*
X863717Y270147D01*
X863797Y270047D01*
X865381Y268988D01*
X867250Y268616D01*
X869119Y268988D01*
X870703Y270047D01*
X871297D01*
X872881Y268988D01*
X874750Y268616D01*
X876619Y268988D01*
X878203Y270047D01*
X878797D01*
X880381Y268988D01*
X882250Y268616D01*
X884119Y268988D01*
X885703Y270047D01*
X886297D01*
X887881Y268988D01*
X889750Y268616D01*
X891619Y268988D01*
X892558Y269615D01*
X893500Y269943D01*
X894443Y269615D01*
X895381Y268988D01*
X897250Y268616D01*
X899119Y268988D01*
X900058Y269615D01*
X901000Y269943D01*
X901943Y269615D01*
X902881Y268988D01*
X904750Y268616D01*
X906619Y268988D01*
X908203Y270047D01*
X908797D01*
X910381Y268988D01*
X912250Y268616D01*
X914119Y268988D01*
X915703Y270047D01*
X916297D01*
X917881Y268988D01*
X919750Y268616D01*
X921619Y268988D01*
X923203Y270047D01*
X923797D01*
X925381Y268988D01*
X927250Y268616D01*
X929119Y268988D01*
X930703Y270047D01*
X931297D01*
X932881Y268988D01*
X934750Y268616D01*
X936619Y268988D01*
X938203Y270047D01*
X938240Y270101D01*
X939510D01*
X939547Y270047D01*
X941131Y268988D01*
X943000Y268616D01*
X944869Y268988D01*
X945807Y269615D01*
X946750Y269943D01*
X947692Y269615D01*
X948631Y268988D01*
X950500Y268616D01*
X952369Y268988D01*
X953307Y269615D01*
X954250Y269943D01*
X955192Y269615D01*
X956131Y268988D01*
X958000Y268616D01*
X959869Y268988D01*
X960807Y269615D01*
X961750Y269943D01*
X962692Y269615D01*
X963631Y268988D01*
X965500Y268616D01*
X967369Y268988D01*
X968953Y270047D01*
X969547D01*
X971131Y268988D01*
X973000Y268616D01*
X974869Y268988D01*
X975807Y269615D01*
X976750Y269943D01*
X977692Y269615D01*
X978631Y268988D01*
X980500Y268616D01*
X982369Y268988D01*
X983307Y269615D01*
X984250Y269943D01*
X985192Y269615D01*
X986131Y268988D01*
X988000Y268616D01*
X989869Y268988D01*
X990807Y269615D01*
X991750Y269943D01*
X992692Y269615D01*
X993631Y268988D01*
X995500Y268616D01*
X997369Y268988D01*
X998953Y270047D01*
X999547D01*
X1001131Y268988D01*
X1003000Y268616D01*
X1004869Y268988D01*
X1005807Y269615D01*
X1006750Y269943D01*
X1007692Y269615D01*
X1008631Y268988D01*
X1010500Y268616D01*
X1012369Y268988D01*
X1013307Y269615D01*
X1014250Y269943D01*
X1015192Y269615D01*
X1016131Y268988D01*
X1018000Y268616D01*
X1019869Y268988D01*
X1020807Y269615D01*
X1021750Y269943D01*
X1022692Y269615D01*
X1023631Y268988D01*
X1025500Y268616D01*
X1027369Y268988D01*
X1028307Y269615D01*
X1029250Y269943D01*
X1030192Y269615D01*
X1031131Y268988D01*
X1033000Y268616D01*
X1034869Y268988D01*
X1035807Y269615D01*
X1036750Y269943D01*
X1037692Y269615D01*
X1038631Y268988D01*
X1040500Y268616D01*
X1042369Y268988D01*
X1043307Y269615D01*
X1044250Y269943D01*
X1045192Y269615D01*
X1046131Y268988D01*
X1048000Y268616D01*
X1049869Y268988D01*
X1050808Y269615D01*
X1051750Y269943D01*
X1052692Y269615D01*
X1053631Y268988D01*
X1055500Y268616D01*
X1057369Y268988D01*
X1058953Y270047D01*
X1059547D01*
X1061131Y268988D01*
X1063000Y268616D01*
X1064869Y268988D01*
X1066453Y270047D01*
X1067047D01*
X1068631Y268988D01*
X1070500Y268616D01*
X1072369Y268988D01*
X1073307Y269615D01*
X1074250Y269943D01*
X1075192Y269615D01*
X1076131Y268988D01*
X1078000Y268616D01*
X1079869Y268988D01*
X1080807Y269615D01*
X1081750Y269943D01*
X1082692Y269615D01*
X1083631Y268988D01*
X1085500Y268616D01*
X1087369Y268988D01*
X1088307Y269615D01*
X1089250Y269943D01*
X1090192Y269615D01*
X1091131Y268988D01*
X1093000Y268616D01*
X1094869Y268988D01*
X1095807Y269615D01*
X1096750Y269943D01*
X1097692Y269615D01*
X1098631Y268988D01*
X1100500Y268616D01*
X1102369Y268988D01*
X1103307Y269615D01*
X1104250Y269943D01*
X1105192Y269615D01*
X1106131Y268988D01*
X1108000Y268616D01*
X1109869Y268988D01*
X1110807Y269615D01*
X1111750Y269943D01*
X1112692Y269615D01*
X1113631Y268988D01*
X1115500Y268616D01*
X1117369Y268988D01*
X1118307Y269615D01*
X1119250Y269943D01*
X1120192Y269615D01*
X1121131Y268988D01*
X1123000Y268616D01*
X1124869Y268988D01*
X1125807Y269615D01*
X1126750Y269943D01*
X1127692Y269615D01*
X1128631Y268988D01*
X1130500Y268616D01*
X1132369Y268988D01*
X1133307Y269615D01*
X1134250Y269943D01*
X1135192Y269615D01*
X1136131Y268988D01*
X1138000Y268616D01*
X1139869Y268988D01*
X1140807Y269615D01*
X1141750Y269943D01*
X1142692Y269615D01*
X1143631Y268988D01*
X1145500Y268616D01*
X1147369Y268988D01*
X1148307Y269615D01*
X1149250Y269943D01*
X1150192Y269615D01*
X1151131Y268988D01*
X1153000Y268616D01*
X1154869Y268988D01*
X1155807Y269615D01*
X1156750Y269943D01*
X1157692Y269615D01*
X1158631Y268988D01*
X1160500Y268616D01*
X1162369Y268988D01*
X1163307Y269615D01*
X1164250Y269943D01*
X1165192Y269615D01*
X1166131Y268988D01*
X1168000Y268616D01*
X1169869Y268988D01*
X1170807Y269615D01*
X1171750Y269943D01*
X1172692Y269615D01*
X1173631Y268988D01*
X1175500Y268616D01*
X1177369Y268988D01*
X1178307Y269615D01*
X1179250Y269943D01*
X1180192Y269615D01*
X1181131Y268988D01*
X1183000Y268616D01*
X1184869Y268988D01*
X1185807Y269615D01*
X1186750Y269943D01*
X1187692Y269615D01*
X1188631Y268988D01*
X1190500Y268616D01*
X1192369Y268988D01*
X1193307Y269615D01*
X1194250Y269943D01*
X1195192Y269615D01*
X1196131Y268988D01*
X1198000Y268616D01*
X1199869Y268988D01*
X1200807Y269615D01*
X1201750Y269943D01*
X1202692Y269615D01*
X1203631Y268988D01*
X1205500Y268616D01*
X1207369Y268988D01*
X1208307Y269615D01*
X1209250Y269943D01*
X1210192Y269615D01*
X1211131Y268988D01*
X1213000Y268616D01*
X1214869Y268988D01*
X1216453Y270047D01*
X1217047D01*
X1218631Y268988D01*
X1220500Y268616D01*
X1222369Y268988D01*
X1223953Y270047D01*
X1224547D01*
X1226131Y268988D01*
X1228000Y268616D01*
X1229869Y268988D01*
X1230807Y269615D01*
X1231750Y269943D01*
X1232692Y269615D01*
X1233631Y268988D01*
X1235500Y268616D01*
X1237369Y268988D01*
X1238307Y269615D01*
X1239250Y269943D01*
X1240192Y269615D01*
X1241131Y268988D01*
X1243000Y268616D01*
X1244869Y268988D01*
X1246453Y270047D01*
X1246615Y270289D01*
X1247885D01*
X1248047Y270047D01*
X1249631Y268988D01*
X1251500Y268616D01*
X1253369Y268988D01*
X1254953Y270047D01*
X1256047D01*
X1257631Y268988D01*
X1259500Y268616D01*
X1261369Y268988D01*
X1262953Y270047D01*
X1264047D01*
X1265631Y268988D01*
X1267500Y268616D01*
X1269369Y268988D01*
X1270953Y270047D01*
X1271797D01*
X1273381Y268988D01*
X1275250Y268616D01*
X1277119Y268988D01*
X1278703Y270047D01*
X1279762Y271631D01*
X1280134Y273500D01*
X1279762Y275369D01*
X1278703Y276953D01*
X1278525Y277073D01*
X1278910Y278343D01*
X1288840D01*
X1289225Y277073D01*
X1289047Y276953D01*
X1287988Y275369D01*
X1287616Y273500D01*
X1287988Y271631D01*
X1289047Y270047D01*
X1290631Y268988D01*
X1292500Y268616D01*
X1294369Y268988D01*
X1295953Y270047D01*
X1297012Y271631D01*
X1297103Y272086D01*
X1298398D01*
X1298488Y271631D01*
X1299547Y270047D01*
X1301131Y268988D01*
X1303000Y268616D01*
X1304869Y268988D01*
X1306453Y270047D01*
X1307047D01*
X1308631Y268988D01*
X1310500Y268616D01*
X1312369Y268988D01*
X1313953Y270047D01*
X1314547D01*
X1316131Y268988D01*
X1318000Y268616D01*
X1319869Y268988D01*
X1321453Y270047D01*
X1322047D01*
X1323631Y268988D01*
X1325500Y268616D01*
X1327369Y268988D01*
X1328307Y269615D01*
X1329250Y269943D01*
X1330193Y269615D01*
X1331131Y268988D01*
X1333000Y268616D01*
X1334869Y268988D01*
X1335807Y269615D01*
X1336750Y269943D01*
X1337693Y269615D01*
X1338631Y268988D01*
X1340500Y268616D01*
X1342369Y268988D01*
X1343307Y269615D01*
X1344250Y269943D01*
X1345193Y269615D01*
X1346131Y268988D01*
X1348000Y268616D01*
X1349869Y268988D01*
X1350807Y269615D01*
X1351750Y269943D01*
X1352693Y269615D01*
X1353631Y268988D01*
X1355500Y268616D01*
X1357369Y268988D01*
X1358307Y269615D01*
X1359250Y269943D01*
X1360193Y269615D01*
X1361131Y268988D01*
X1363000Y268616D01*
X1364869Y268988D01*
X1365807Y269615D01*
X1366750Y269943D01*
X1367693Y269615D01*
X1368631Y268988D01*
X1370500Y268616D01*
X1372369Y268988D01*
X1373307Y269615D01*
X1374250Y269943D01*
X1375193Y269615D01*
X1376131Y268988D01*
X1378000Y268616D01*
X1379869Y268988D01*
X1381453Y270047D01*
X1382047D01*
X1383631Y268988D01*
X1385500Y268616D01*
X1387369Y268988D01*
X1388953Y270047D01*
X1389547D01*
X1391131Y268988D01*
X1393000Y268616D01*
X1394869Y268988D01*
X1396453Y270047D01*
X1397047D01*
X1398631Y268988D01*
X1400500Y268616D01*
X1402369Y268988D01*
X1403307Y269615D01*
X1404250Y269943D01*
X1405193Y269615D01*
X1406131Y268988D01*
X1408000Y268616D01*
X1409869Y268988D01*
X1410807Y269615D01*
X1411750Y269943D01*
X1412693Y269615D01*
X1413631Y268988D01*
X1415500Y268616D01*
X1417369Y268988D01*
X1418307Y269615D01*
X1419250Y269943D01*
X1420193Y269615D01*
X1421131Y268988D01*
X1423000Y268616D01*
X1424869Y268988D01*
X1425807Y269615D01*
X1426750Y269943D01*
X1427693Y269615D01*
X1428631Y268988D01*
X1430500Y268616D01*
X1432369Y268988D01*
X1433307Y269615D01*
X1434250Y269943D01*
X1435193Y269615D01*
X1436131Y268988D01*
X1438000Y268616D01*
X1439869Y268988D01*
X1441453Y270047D01*
X1442047D01*
X1443631Y268988D01*
X1445500Y268616D01*
X1447369Y268988D01*
X1448953Y270047D01*
X1449547D01*
X1451131Y268988D01*
X1453000Y268616D01*
X1454869Y268988D01*
X1455807Y269615D01*
X1456750Y269943D01*
X1457693Y269615D01*
X1458631Y268988D01*
X1460500Y268616D01*
X1462369Y268988D01*
X1463307Y269615D01*
X1464250Y269943D01*
X1465193Y269615D01*
X1466131Y268988D01*
X1468000Y268616D01*
X1469869Y268988D01*
X1471453Y270047D01*
X1472047D01*
X1473631Y268988D01*
X1475500Y268616D01*
X1477369Y268988D01*
X1478953Y270047D01*
X1479547D01*
X1481131Y268988D01*
X1483000Y268616D01*
X1484869Y268988D01*
X1486453Y270047D01*
X1487047D01*
X1488631Y268988D01*
X1490500Y268616D01*
X1492369Y268988D01*
X1493953Y270047D01*
X1494547D01*
X1496131Y268988D01*
X1498000Y268616D01*
X1499869Y268988D01*
X1500807Y269615D01*
X1501750Y269943D01*
X1502693Y269615D01*
X1503631Y268988D01*
X1505500Y268616D01*
X1507369Y268988D01*
X1508953Y270047D01*
X1509547D01*
X1511131Y268988D01*
X1513000Y268616D01*
X1514869Y268988D01*
X1515807Y269615D01*
X1516750Y269943D01*
X1517693Y269615D01*
X1518631Y268988D01*
X1520500Y268616D01*
X1522369Y268988D01*
X1523953Y270047D01*
X1524547D01*
X1526131Y268988D01*
X1528000Y268616D01*
X1529869Y268988D01*
X1530807Y269615D01*
X1531750Y269943D01*
X1532693Y269615D01*
X1533631Y268988D01*
X1535500Y268616D01*
X1537369Y268988D01*
X1538307Y269615D01*
X1539250Y269943D01*
X1540193Y269615D01*
X1541131Y268988D01*
X1543000Y268616D01*
X1544869Y268988D01*
X1545807Y269615D01*
X1546750Y269943D01*
X1547693Y269615D01*
X1548631Y268988D01*
X1550500Y268616D01*
X1552369Y268988D01*
X1553307Y269615D01*
X1554250Y269943D01*
X1555193Y269615D01*
X1556131Y268988D01*
X1558000Y268616D01*
X1559869Y268988D01*
X1560807Y269615D01*
X1561750Y269943D01*
X1562693Y269615D01*
X1563631Y268988D01*
X1565500Y268616D01*
X1567369Y268988D01*
X1568953Y270047D01*
X1569547D01*
X1571131Y268988D01*
X1573000Y268616D01*
X1574869Y268988D01*
X1575807Y269615D01*
X1576750Y269943D01*
X1577693Y269615D01*
X1578631Y268988D01*
X1580500Y268616D01*
X1582369Y268988D01*
X1583307Y269615D01*
X1584250Y269943D01*
X1585193Y269615D01*
X1586131Y268988D01*
X1588000Y268616D01*
X1589869Y268988D01*
X1590807Y269615D01*
X1591750Y269943D01*
X1592693Y269615D01*
X1593631Y268988D01*
X1595500Y268616D01*
X1597369Y268988D01*
X1598953Y270047D01*
X1599547D01*
X1601131Y268988D01*
X1603000Y268616D01*
X1604869Y268988D01*
X1605807Y269615D01*
X1606750Y269943D01*
X1607693Y269615D01*
X1608631Y268988D01*
X1610500Y268616D01*
X1612369Y268988D01*
X1613307Y269615D01*
X1614250Y269943D01*
X1615193Y269615D01*
X1616131Y268988D01*
X1618000Y268616D01*
X1619869Y268988D01*
X1620807Y269615D01*
X1621750Y269943D01*
X1622693Y269615D01*
X1623631Y268988D01*
X1625500Y268616D01*
X1627369Y268988D01*
X1628307Y269615D01*
X1629250Y269943D01*
X1630193Y269615D01*
X1631131Y268988D01*
X1633000Y268616D01*
X1634869Y268988D01*
X1636453Y270047D01*
X1637047D01*
X1638631Y268988D01*
X1640500Y268616D01*
X1642369Y268988D01*
X1643953Y270047D01*
X1644547D01*
X1646131Y268988D01*
X1648000Y268616D01*
X1649869Y268988D01*
X1651453Y270047D01*
X1652047D01*
X1653631Y268988D01*
X1655500Y268616D01*
X1657369Y268988D01*
X1658307Y269615D01*
X1659250Y269943D01*
X1660193Y269615D01*
X1661131Y268988D01*
X1663000Y268616D01*
X1664869Y268988D01*
X1665807Y269615D01*
X1666750Y269943D01*
X1667693Y269615D01*
X1668631Y268988D01*
X1670500Y268616D01*
X1672369Y268988D01*
X1673953Y270047D01*
X1674547D01*
X1676131Y268988D01*
X1678000Y268616D01*
X1679869Y268988D01*
X1681453Y270047D01*
X1682047D01*
X1683631Y268988D01*
X1685500Y268616D01*
X1687369Y268988D01*
X1688953Y270047D01*
X1689547D01*
X1691131Y268988D01*
X1693000Y268616D01*
X1694869Y268988D01*
X1696453Y270047D01*
X1697047D01*
X1698631Y268988D01*
X1700500Y268616D01*
X1702369Y268988D01*
X1703953Y270047D01*
X1704445Y270783D01*
X1705369Y270165D01*
X1706750Y269891D01*
X1726250D01*
X1727631Y270165D01*
X1728555Y270783D01*
X1729047Y270047D01*
X1730631Y268988D01*
X1732500Y268616D01*
X1734369Y268988D01*
X1735307Y269615D01*
X1736250Y269943D01*
X1737193Y269615D01*
X1738131Y268988D01*
X1740000Y268616D01*
X1741869Y268988D01*
X1742807Y269615D01*
X1743750Y269943D01*
X1744693Y269615D01*
X1745631Y268988D01*
X1747500Y268616D01*
X1749369Y268988D01*
X1750953Y270047D01*
X1751547D01*
X1753131Y268988D01*
X1755000Y268616D01*
X1756869Y268988D01*
X1757807Y269615D01*
X1758750Y269943D01*
X1759693Y269615D01*
X1760631Y268988D01*
X1762500Y268616D01*
X1764369Y268988D01*
X1765307Y269615D01*
X1766250Y269943D01*
X1767193Y269615D01*
X1768131Y268988D01*
X1770000Y268616D01*
X1771869Y268988D01*
X1772807Y269615D01*
X1773750Y269943D01*
X1774693Y269615D01*
X1775631Y268988D01*
X1777500Y268616D01*
X1779369Y268988D01*
X1780307Y269615D01*
X1781250Y269943D01*
X1782193Y269615D01*
X1783131Y268988D01*
X1785000Y268616D01*
X1786869Y268988D01*
X1787807Y269615D01*
X1788750Y269943D01*
X1789693Y269615D01*
X1790631Y268988D01*
X1792500Y268616D01*
X1794369Y268988D01*
X1795307Y269615D01*
X1796250Y269943D01*
X1797193Y269615D01*
X1798131Y268988D01*
X1800000Y268616D01*
X1801869Y268988D01*
X1802807Y269615D01*
X1803750Y269943D01*
X1804693Y269615D01*
X1805631Y268988D01*
X1807500Y268616D01*
X1809369Y268988D01*
X1810307Y269615D01*
X1811250Y269943D01*
X1812193Y269615D01*
X1813131Y268988D01*
X1815000Y268616D01*
X1816869Y268988D01*
X1817807Y269615D01*
X1818750Y269943D01*
X1819693Y269615D01*
X1820631Y268988D01*
X1822500Y268616D01*
X1824369Y268988D01*
X1825307Y269615D01*
X1826250Y269943D01*
X1827193Y269615D01*
X1828131Y268988D01*
X1830000Y268616D01*
X1831869Y268988D01*
X1832807Y269615D01*
X1833750Y269943D01*
X1834693Y269615D01*
X1835631Y268988D01*
X1837500Y268616D01*
X1839369Y268988D01*
X1840307Y269615D01*
X1841250Y269943D01*
X1842193Y269615D01*
X1843131Y268988D01*
X1845000Y268616D01*
X1846869Y268988D01*
X1847807Y269615D01*
X1848750Y269943D01*
X1849693Y269615D01*
X1850631Y268988D01*
X1852500Y268616D01*
X1854369Y268988D01*
X1855953Y270047D01*
X1857012Y271631D01*
X1857384Y273500D01*
X1857012Y275369D01*
X1855953Y276953D01*
X1854369Y278012D01*
X1852500Y278384D01*
X1850631Y278012D01*
X1849693Y277385D01*
X1848750Y277057D01*
X1847807Y277385D01*
X1846869Y278012D01*
X1845000Y278384D01*
X1843131Y278012D01*
X1842193Y277385D01*
X1841250Y277057D01*
X1840307Y277385D01*
X1839369Y278012D01*
X1837500Y278384D01*
X1835631Y278012D01*
X1834693Y277385D01*
X1833750Y277057D01*
X1832807Y277385D01*
X1831869Y278012D01*
X1830000Y278384D01*
X1828131Y278012D01*
X1827193Y277385D01*
X1826250Y277057D01*
X1825307Y277385D01*
X1824369Y278012D01*
X1822500Y278384D01*
X1820631Y278012D01*
X1819693Y277385D01*
X1818750Y277057D01*
X1817807Y277385D01*
X1816869Y278012D01*
X1815000Y278384D01*
X1813131Y278012D01*
X1812193Y277385D01*
X1811250Y277057D01*
X1810307Y277385D01*
X1809369Y278012D01*
X1807500Y278384D01*
X1805631Y278012D01*
X1804693Y277385D01*
X1803750Y277057D01*
X1802807Y277385D01*
X1801869Y278012D01*
X1800000Y278384D01*
X1798131Y278012D01*
X1797193Y277385D01*
X1796250Y277057D01*
X1795307Y277385D01*
X1794369Y278012D01*
X1792500Y278384D01*
X1790631Y278012D01*
X1789693Y277385D01*
X1788750Y277057D01*
X1787807Y277385D01*
X1786869Y278012D01*
X1785000Y278384D01*
X1783131Y278012D01*
X1782193Y277385D01*
X1781250Y277057D01*
X1780307Y277385D01*
X1779369Y278012D01*
X1777500Y278384D01*
X1775631Y278012D01*
X1774693Y277385D01*
X1773750Y277057D01*
X1772807Y277385D01*
X1771869Y278012D01*
X1770000Y278384D01*
X1768131Y278012D01*
X1767193Y277385D01*
X1766250Y277057D01*
X1765307Y277385D01*
X1764369Y278012D01*
X1762500Y278384D01*
X1760631Y278012D01*
X1759047Y276953D01*
X1758453D01*
X1756869Y278012D01*
X1755000Y278384D01*
X1753131Y278012D01*
X1751547Y276953D01*
X1750953D01*
X1749369Y278012D01*
X1747500Y278384D01*
X1745631Y278012D01*
X1744693Y277385D01*
X1743750Y277057D01*
X1742807Y277385D01*
X1741869Y278012D01*
X1740000Y278384D01*
X1738131Y278012D01*
X1737193Y277385D01*
X1736250Y277057D01*
X1735307Y277385D01*
X1734369Y278012D01*
X1732500Y278384D01*
X1731129Y278111D01*
X1729859Y278908D01*
Y303750D01*
X1729585Y305131D01*
X1728802Y306302D01*
X1727631Y307085D01*
X1726250Y307359D01*
X1706750D01*
X1705369Y307085D01*
X1704198Y306302D01*
X1703415Y305131D01*
X1703141Y303750D01*
Y278908D01*
X1701871Y278111D01*
X1700500Y278384D01*
X1698631Y278012D01*
X1697047Y276953D01*
X1696453D01*
X1694869Y278012D01*
X1693000Y278384D01*
X1691131Y278012D01*
X1689547Y276953D01*
X1688953D01*
X1687369Y278012D01*
X1685500Y278384D01*
X1683631Y278012D01*
X1682047Y276953D01*
X1681453D01*
X1679869Y278012D01*
X1678000Y278384D01*
X1676131Y278012D01*
X1674547Y276953D01*
X1673953D01*
X1672369Y278012D01*
X1670500Y278384D01*
X1668631Y278012D01*
X1667047Y276953D01*
X1666453D01*
X1664869Y278012D01*
X1663000Y278384D01*
X1661131Y278012D01*
X1660193Y277385D01*
X1659250Y277057D01*
X1658307Y277385D01*
X1657369Y278012D01*
X1655500Y278384D01*
X1653631Y278012D01*
X1652047Y276953D01*
X1651453D01*
X1649869Y278012D01*
X1648000Y278384D01*
X1646131Y278012D01*
X1644547Y276953D01*
X1643953D01*
X1642369Y278012D01*
X1640500Y278384D01*
X1638631Y278012D01*
X1637047Y276953D01*
X1636453D01*
X1634869Y278012D01*
X1633000Y278384D01*
X1631131Y278012D01*
X1629547Y276953D01*
X1628953D01*
X1627369Y278012D01*
X1625500Y278384D01*
X1623631Y278012D01*
X1622693Y277385D01*
X1621750Y277057D01*
X1620807Y277385D01*
X1619869Y278012D01*
X1618000Y278384D01*
X1616131Y278012D01*
X1614547Y276953D01*
X1613953D01*
X1612369Y278012D01*
X1610500Y278384D01*
X1608631Y278012D01*
X1607047Y276953D01*
X1606453D01*
X1604869Y278012D01*
X1603000Y278384D01*
X1601131Y278012D01*
X1599547Y276953D01*
X1598953D01*
X1597369Y278012D01*
X1595500Y278384D01*
X1593631Y278012D01*
X1592047Y276953D01*
X1591453D01*
X1589869Y278012D01*
X1588000Y278384D01*
X1586131Y278012D01*
X1585193Y277385D01*
X1584250Y277057D01*
X1583307Y277385D01*
X1582369Y278012D01*
X1580500Y278384D01*
X1578631Y278012D01*
X1577047Y276953D01*
X1576453D01*
X1574869Y278012D01*
X1573000Y278384D01*
X1571131Y278012D01*
X1569547Y276953D01*
X1568953D01*
X1567369Y278012D01*
X1565500Y278384D01*
X1563631Y278012D01*
X1562047Y276953D01*
X1561453D01*
X1559869Y278012D01*
X1558000Y278384D01*
X1556131Y278012D01*
X1554547Y276953D01*
X1553953D01*
X1552369Y278012D01*
X1550500Y278384D01*
X1548631Y278012D01*
X1547693Y277385D01*
X1546750Y277057D01*
X1545807Y277385D01*
X1544869Y278012D01*
X1543000Y278384D01*
X1541131Y278012D01*
X1540193Y277385D01*
X1539250Y277057D01*
X1538307Y277385D01*
X1537369Y278012D01*
X1535500Y278384D01*
X1533631Y278012D01*
X1532047Y276953D01*
X1531453D01*
X1529869Y278012D01*
X1528000Y278384D01*
X1526131Y278012D01*
X1524547Y276953D01*
X1523953D01*
X1522369Y278012D01*
X1520500Y278384D01*
X1518631Y278012D01*
X1517047Y276953D01*
X1516453D01*
X1514869Y278012D01*
X1513000Y278384D01*
X1511131Y278012D01*
X1509547Y276953D01*
X1508953D01*
X1507369Y278012D01*
X1505500Y278384D01*
X1503631Y278012D01*
X1502047Y276953D01*
X1501453D01*
X1499869Y278012D01*
X1498000Y278384D01*
X1496131Y278012D01*
X1494547Y276953D01*
X1493953D01*
X1492369Y278012D01*
X1490500Y278384D01*
X1488631Y278012D01*
X1487047Y276953D01*
X1486453D01*
X1484869Y278012D01*
X1483000Y278384D01*
X1481131Y278012D01*
X1479547Y276953D01*
X1478953D01*
X1477369Y278012D01*
X1475500Y278384D01*
X1473631Y278012D01*
X1472047Y276953D01*
X1471453D01*
X1469869Y278012D01*
X1468000Y278384D01*
X1466131Y278012D01*
X1465193Y277385D01*
X1464250Y277057D01*
X1463307Y277385D01*
X1462632Y277836D01*
X1462458Y278832D01*
X1462506Y279280D01*
X1462523Y279291D01*
X1521816Y338584D01*
X1522071Y338533D01*
X1523940Y338905D01*
X1525525Y339964D01*
X1526583Y341548D01*
X1526955Y343417D01*
X1526583Y345286D01*
X1525525Y346871D01*
X1524648Y347457D01*
X1524037Y348738D01*
X1524092Y349194D01*
X1524384Y350660D01*
X1524012Y352529D01*
X1522953Y354113D01*
X1521685Y354961D01*
X1522060Y356231D01*
X1665793D01*
X1666381Y355838D01*
X1668250Y355466D01*
X1670119Y355838D01*
X1670707Y356231D01*
X1744190D01*
X1745766Y356544D01*
X1747103Y357437D01*
X1760413Y370747D01*
X1761306Y372084D01*
X1761619Y373660D01*
Y396203D01*
X1762012Y396791D01*
X1762384Y398660D01*
X1762012Y400529D01*
X1760953Y402113D01*
X1759369Y403172D01*
X1757500Y403544D01*
X1755631Y403172D01*
X1754047Y402113D01*
X1752988Y400529D01*
X1752616Y398660D01*
X1752988Y396791D01*
X1753381Y396203D01*
Y375366D01*
X1742484Y364469D01*
X1670707D01*
X1670119Y364862D01*
X1668250Y365234D01*
X1666381Y364862D01*
X1665793Y364469D01*
X1637849D01*
X1637323Y365739D01*
X1639261Y367678D01*
X1640369Y367898D01*
X1641953Y368957D01*
X1643012Y370541D01*
X1643384Y372410D01*
X1643012Y374279D01*
X1641953Y375863D01*
X1640369Y376922D01*
X1638500Y377294D01*
X1636631Y376922D01*
X1635047Y375863D01*
X1633988Y374279D01*
X1633768Y373171D01*
X1632149Y371553D01*
X1590865D01*
X1590792Y371634D01*
X1590303Y372823D01*
X1590835Y373619D01*
X1591109Y375000D01*
Y493551D01*
X1625500D01*
X1625822Y493615D01*
X1626150Y493610D01*
X1626506Y493751D01*
X1626881Y493825D01*
X1627154Y494008D01*
X1627459Y494128D01*
X1627734Y494395D01*
X1628052Y494608D01*
X1628234Y494880D01*
X1628470Y495109D01*
X1628622Y495460D01*
X1628835Y495779D01*
X1628899Y496101D01*
X1629029Y496401D01*
X1629035Y496784D01*
X1629109Y497160D01*
X1629045Y497482D01*
X1629050Y497810D01*
X1628909Y498166D01*
X1628835Y498541D01*
X1628652Y498814D01*
X1628531Y499119D01*
X1628265Y499394D01*
X1628052Y499712D01*
X1627780Y499894D01*
X1627551Y500130D01*
X1623824Y502704D01*
X1620521Y505064D01*
X1618049Y507310D01*
X1615619Y509961D01*
X1613980Y512512D01*
X1613630Y515311D01*
X1613807Y517256D01*
X1614489Y519303D01*
X1616143Y521508D01*
X1618841Y523791D01*
X1621048Y525079D01*
X1623452Y525560D01*
X1627450Y524651D01*
D02*
G37*
G36*
X1521675Y421598D02*
Y413378D01*
X1520405Y412364D01*
X1519500Y412544D01*
X1517631Y412172D01*
X1516047Y411113D01*
X1514988Y409529D01*
X1514616Y407660D01*
X1514988Y405791D01*
X1516047Y404207D01*
X1516263Y404062D01*
Y376258D01*
X1516047Y376113D01*
X1514988Y374529D01*
X1514616Y372660D01*
X1514988Y370791D01*
X1516047Y369207D01*
X1517631Y368148D01*
X1518696Y367936D01*
X1519937Y367668D01*
X1520309Y365799D01*
X1520450Y365589D01*
X1519851Y364469D01*
X1495516D01*
X1483150Y376835D01*
X1483012Y377529D01*
X1481953Y379113D01*
X1480369Y380172D01*
X1478500Y380544D01*
X1476631Y380172D01*
X1475047Y379113D01*
X1473988Y377529D01*
X1473616Y375660D01*
X1473988Y373791D01*
X1475047Y372207D01*
X1476631Y371148D01*
X1477325Y371010D01*
X1487985Y360350D01*
X1468914Y341279D01*
X1376956D01*
X1372719Y345516D01*
Y372669D01*
X1373989Y373059D01*
X1374013Y373023D01*
X1374398Y372448D01*
X1374407Y372442D01*
X1374413Y372432D01*
X1374994Y372049D01*
X1375569Y371665D01*
X1375580Y371663D01*
X1375589Y371657D01*
X1376273Y371525D01*
X1376950Y371391D01*
X1396593D01*
X1397079Y370217D01*
X1396062Y369200D01*
X1379560D01*
Y348120D01*
X1400640D01*
Y364622D01*
X1402623Y366605D01*
X1406711D01*
X1407337Y365335D01*
X1406293Y363975D01*
X1405231Y361412D01*
X1404869Y358660D01*
X1405231Y355909D01*
X1406293Y353344D01*
X1407983Y351143D01*
X1410184Y349453D01*
X1412749Y348391D01*
X1415500Y348029D01*
X1418251Y348391D01*
X1420815Y349453D01*
X1423017Y351143D01*
X1424707Y353344D01*
X1425769Y355909D01*
X1426131Y358660D01*
X1425769Y361412D01*
X1424707Y363975D01*
X1423017Y366177D01*
X1420815Y367867D01*
X1420082Y368171D01*
X1419834Y369416D01*
X1421789Y371371D01*
X1422491Y372421D01*
X1422737Y373660D01*
Y394886D01*
X1424007Y395565D01*
X1424631Y395148D01*
X1426500Y394776D01*
X1426755Y394827D01*
X1433263Y388319D01*
Y364258D01*
X1433047Y364113D01*
X1431988Y362529D01*
X1431616Y360660D01*
X1431988Y358791D01*
X1433047Y357207D01*
X1434631Y356148D01*
X1436500Y355776D01*
X1438369Y356148D01*
X1439953Y357207D01*
X1441012Y358791D01*
X1441384Y360660D01*
X1441012Y362529D01*
X1439953Y364113D01*
X1439737Y364258D01*
Y389660D01*
X1439491Y390899D01*
X1438789Y391949D01*
X1431333Y399405D01*
X1431384Y399660D01*
X1431012Y401529D01*
X1429953Y403113D01*
X1428369Y404172D01*
X1426500Y404544D01*
X1425574Y404360D01*
X1424948Y405530D01*
X1431841Y412423D01*
X1449902D01*
X1450047Y412207D01*
X1451631Y411148D01*
X1453500Y410776D01*
X1454426Y410960D01*
X1455052Y409790D01*
X1453755Y408493D01*
X1453500Y408544D01*
X1451631Y408172D01*
X1450047Y407113D01*
X1448988Y405529D01*
X1448616Y403660D01*
X1448988Y401791D01*
X1450047Y400207D01*
X1451631Y399148D01*
X1453500Y398776D01*
X1455369Y399148D01*
X1456953Y400207D01*
X1457048Y400348D01*
X1497425D01*
X1498664Y400594D01*
X1499714Y401296D01*
X1520502Y422084D01*
X1521675Y421598D01*
D02*
G37*
%LPC*%
G36*
X1498730Y483390D02*
X1492460D01*
Y477120D01*
X1498730D01*
Y483390D01*
D02*
G37*
G36*
X1813730Y466201D02*
X1811125D01*
X1808622Y465703D01*
X1806500Y464285D01*
X1805082Y462163D01*
X1804837Y460930D01*
X1813730D01*
Y466201D01*
D02*
G37*
G36*
Y458390D02*
X1804837D01*
X1805082Y457157D01*
X1806500Y455035D01*
X1808622Y453617D01*
X1811125Y453119D01*
X1813730D01*
Y458390D01*
D02*
G37*
G36*
X1789270Y458561D02*
Y450930D01*
X1793903D01*
Y452910D01*
X1793454Y455169D01*
X1792174Y457084D01*
X1790259Y458364D01*
X1789270Y458561D01*
D02*
G37*
G36*
X1786730Y458561D02*
X1785741Y458364D01*
X1783826Y457084D01*
X1782546Y455169D01*
X1782097Y452910D01*
Y450930D01*
X1786730D01*
Y458561D01*
D02*
G37*
G36*
X1793903Y448390D02*
X1789270D01*
Y440759D01*
X1790259Y440956D01*
X1792174Y442236D01*
X1793454Y444151D01*
X1793903Y446410D01*
Y448390D01*
D02*
G37*
G36*
X1786730D02*
X1782097D01*
Y446410D01*
X1782546Y444151D01*
X1783826Y442236D01*
X1785741Y440956D01*
X1786730Y440759D01*
Y448390D01*
D02*
G37*
G36*
X1789270Y408561D02*
Y400930D01*
X1793903D01*
Y402910D01*
X1793454Y405169D01*
X1792174Y407084D01*
X1790259Y408364D01*
X1789270Y408561D01*
D02*
G37*
G36*
X1786730Y408561D02*
X1785741Y408364D01*
X1783826Y407084D01*
X1782546Y405169D01*
X1782097Y402910D01*
Y400930D01*
X1786730D01*
Y408561D01*
D02*
G37*
G36*
X1813730Y396201D02*
X1811125D01*
X1808622Y395703D01*
X1806500Y394285D01*
X1805082Y392163D01*
X1804837Y390930D01*
X1813730D01*
Y396201D01*
D02*
G37*
G36*
X1793903Y398390D02*
X1789270D01*
Y390759D01*
X1790259Y390956D01*
X1792174Y392236D01*
X1793454Y394151D01*
X1793903Y396410D01*
Y398390D01*
D02*
G37*
G36*
X1786730D02*
X1782097D01*
Y396410D01*
X1782546Y394151D01*
X1783826Y392236D01*
X1785741Y390956D01*
X1786730Y390759D01*
Y398390D01*
D02*
G37*
G36*
X1813730Y388390D02*
X1804837D01*
X1805082Y387157D01*
X1806500Y385035D01*
X1808622Y383617D01*
X1811125Y383119D01*
X1813730D01*
Y388390D01*
D02*
G37*
%LPD*%
D10*
X1099750Y466250D02*
X1103750D01*
X1086250Y479750D02*
X1099750Y466250D01*
X1106925Y291235D02*
X1438235D01*
X1498500Y351500D01*
X998855Y409305D02*
Y474250D01*
Y409305D02*
X1111500Y296660D01*
X1002665Y413884D02*
Y471895D01*
X1013020Y482250D01*
X1019000D01*
X1013800Y465451D02*
Y467523D01*
Y465451D02*
X1032180Y447070D01*
X1014226Y438595D02*
X1017405D01*
X1013800Y439021D02*
X1014226Y438595D01*
X1015180Y431271D02*
X1131411Y315040D01*
X1014116Y447272D02*
X1024560Y436828D01*
X1002665Y413884D02*
X1113639Y302910D01*
X998855Y474250D02*
X1013605Y489000D01*
X1013800Y431271D02*
X1015180D01*
X1013800Y447272D02*
X1014116D01*
X1042000Y479750D02*
X1086250D01*
X1013605Y489000D02*
X1028250D01*
X1005500Y392660D02*
Y393500D01*
X1013750Y456250D02*
X1028370Y441630D01*
X1032180Y435824D02*
Y447070D01*
X1134567Y322660D02*
X1340978D01*
X1024560Y432667D02*
X1134567Y322660D01*
X1024560Y432667D02*
Y436828D01*
X1136146Y326470D02*
X1337116D01*
X1028370Y434246D02*
X1136146Y326470D01*
X1028370Y434246D02*
Y441630D01*
X1137724Y330280D02*
X1333068D01*
X1032180Y435824D02*
X1137724Y330280D01*
X1138732Y334660D02*
X1332060D01*
X1054000Y419392D02*
X1138732Y334660D01*
X1054000Y419392D02*
Y467000D01*
X1140045Y338735D02*
X1330747D01*
X1061250Y417530D02*
X1140045Y338735D01*
X1061250Y417530D02*
Y467000D01*
X1137070Y451320D02*
X1158000Y472250D01*
X1137070Y370085D02*
Y451320D01*
X1157250Y463250D02*
X1157750D01*
X1140880Y446880D02*
X1157250Y463250D01*
X1140880Y371663D02*
Y446880D01*
X1144690Y373241D02*
X1158536Y359395D01*
X1144690Y373241D02*
Y441940D01*
X1157750Y455000D01*
X1148500Y437500D02*
X1158000Y447000D01*
X1148500Y374819D02*
X1160114Y363205D01*
X1148500Y374819D02*
Y437500D01*
X1152825Y432575D02*
X1158250Y438000D01*
X1152825Y403440D02*
Y432575D01*
Y403440D02*
X1153073Y403192D01*
Y375635D02*
Y403192D01*
X1158250Y428750D02*
X1158498Y428502D01*
Y375598D02*
Y428502D01*
X1017405Y438595D02*
X1020750Y435250D01*
Y431089D02*
Y435250D01*
X1234500Y350410D02*
Y351738D01*
X1220876Y378160D02*
Y378246D01*
X1214131Y366026D02*
Y410802D01*
X1210322Y367604D02*
Y412380D01*
X1206512Y369183D02*
Y413958D01*
X1202701Y370761D02*
Y415862D01*
X1195146Y363205D02*
X1202701Y370761D01*
X1198892Y372339D02*
Y418675D01*
X1193568Y367015D02*
X1198892Y372339D01*
X1195081Y373917D02*
Y420253D01*
X1191989Y370825D02*
X1195081Y373917D01*
X1163271Y370825D02*
X1191989D01*
X1221307Y370919D02*
X1265305Y414917D01*
X1220306Y385419D02*
X1220478D01*
X1220057Y392670D02*
X1220478D01*
X1220057Y399920D02*
X1250065Y429929D01*
X1219557Y407170D02*
X1246255Y433869D01*
X1214131Y410802D02*
X1242445Y439115D01*
X1210322Y412380D02*
X1238635Y440693D01*
X1206512Y413958D02*
X1234825Y442271D01*
X1202701Y415862D02*
X1231015Y444175D01*
X1198892Y418675D02*
X1227205Y446988D01*
X1195081Y420253D02*
X1223395Y448567D01*
X1220478Y392670D02*
X1253875Y426066D01*
X1198302Y355585D02*
X1210322Y367604D01*
X1196724Y359395D02*
X1206512Y369183D01*
X1220478Y385419D02*
X1257685Y422626D01*
X1222000Y363660D02*
X1269115Y410775D01*
X1218250Y351332D02*
X1272925Y406007D01*
X1228500Y353738D02*
X1276735Y401973D01*
X1228500Y345910D02*
Y353738D01*
X1218250Y345660D02*
Y351332D01*
X1272925Y406007D02*
Y855353D01*
X1330747Y338735D02*
X1338675Y346663D01*
X1234500Y351738D02*
X1280545Y397783D01*
X1276735Y401973D02*
Y856932D01*
X1132989Y318850D02*
X1352919D01*
X1131411Y315040D02*
X1354497D01*
X1361535Y322078D01*
X1020750Y431089D02*
X1132989Y318850D01*
X1352919D02*
X1357725Y323656D01*
X1340978Y322660D02*
X1350105Y331787D01*
X1337116Y326470D02*
X1342812Y332167D01*
X1333068Y330280D02*
X1346295Y343507D01*
X1332060Y334660D02*
X1342485Y345085D01*
X1312000Y344160D02*
Y345488D01*
X1005500Y392660D02*
X1106925Y291235D01*
X1021500Y359830D02*
X1099750Y281580D01*
X951146Y359830D02*
X1021500D01*
X1099750Y281580D02*
X1460234D01*
X1497425Y403585D02*
X1524762Y430922D01*
X1525321D01*
X1460234Y281580D02*
X1522071Y343417D01*
X929125Y381851D02*
X951146Y359830D01*
X929125Y381851D02*
Y386285D01*
X1111500Y296660D02*
X1389750D01*
X1113639Y302910D02*
X1417250D01*
X1361535Y322078D02*
Y729945D01*
X1357725Y323656D02*
Y738635D01*
X1353915Y327519D02*
Y747883D01*
X1350813Y324416D02*
X1353915Y327519D01*
X1350105Y331787D02*
Y746305D01*
X1338675Y346663D02*
Y593985D01*
X1330177Y345838D02*
Y356292D01*
X1346295Y343507D02*
Y599425D01*
X1342485Y345085D02*
Y597847D01*
X1361535Y729945D02*
X1454750Y823160D01*
X1357725Y738635D02*
X1383000Y763910D01*
X1346250Y755548D02*
X1353915Y747883D01*
X1335500Y760910D02*
X1350105Y746305D01*
X1343750Y601970D02*
X1346295Y599425D01*
X1337312Y603020D02*
X1342485Y597847D01*
X1337312Y603020D02*
Y604430D01*
X1343750Y601970D02*
Y610410D01*
X1335500Y597160D02*
X1338675Y593985D01*
X1330075Y364335D02*
X1333250Y361160D01*
X1326265Y360205D02*
X1330177Y356292D01*
X1326265Y360205D02*
Y805813D01*
X1322455Y347615D02*
Y956705D01*
X1318645Y352133D02*
Y955127D01*
X1314835Y355995D02*
Y878075D01*
X1311025Y359935D02*
Y871135D01*
X1307215Y364875D02*
Y869557D01*
X1303405Y370565D02*
Y867979D01*
X1299595Y375005D02*
Y866401D01*
X1295785Y378773D02*
Y864822D01*
X1291975Y383635D02*
Y863244D01*
X1288165Y388349D02*
Y861666D01*
X1284355Y393765D02*
Y860088D01*
X1280545Y397783D02*
Y858510D01*
X1269115Y410775D02*
Y853775D01*
X1265305Y414917D02*
Y852197D01*
X1261495Y418865D02*
Y850619D01*
X1257685Y422626D02*
Y849041D01*
X1253875Y426066D02*
Y751035D01*
X1250065Y429929D02*
Y749457D01*
X1246255Y433869D02*
Y745155D01*
X1242445Y439115D02*
Y740965D01*
X1238635Y440693D02*
Y735197D01*
X1234825Y442271D02*
Y731335D01*
X1231015Y444175D02*
Y646145D01*
X1224750Y616410D02*
X1227205Y613955D01*
X1130865Y702623D02*
X1223395Y610093D01*
X1330075Y364335D02*
Y804235D01*
X1312500Y353660D02*
X1314835Y355995D01*
X1297250Y346160D02*
X1311025Y359935D01*
X1295750Y353410D02*
X1307215Y364875D01*
X1279500Y346660D02*
X1303405Y370565D01*
X1278809Y354219D02*
X1299595Y375005D01*
X1330075Y804235D02*
X1344750Y818910D01*
X1326265Y805813D02*
X1361362Y840910D01*
X1290250Y988910D02*
X1322455Y956705D01*
X1321250Y346410D02*
X1322455Y347615D01*
X1281000Y992772D02*
X1318645Y955127D01*
X1312000Y345488D02*
X1318645Y352133D01*
X1304500Y888410D02*
X1314835Y878075D01*
X1277190Y904970D02*
X1311025Y871135D01*
X1273380Y903392D02*
X1307215Y869557D01*
X1269570Y901814D02*
X1303405Y867979D01*
X1263250Y902746D02*
X1299595Y866401D01*
X1259440Y901167D02*
X1295785Y864822D01*
X1262172Y345160D02*
X1295785Y378773D01*
X1255630Y899589D02*
X1291975Y863244D01*
X1263000Y354660D02*
X1291975Y383635D01*
X1251820Y898011D02*
X1288165Y861666D01*
X1246250Y346434D02*
X1288165Y388349D01*
X1248010Y896433D02*
X1284355Y860088D01*
X1244500Y353910D02*
X1284355Y393765D01*
X1244200Y894855D02*
X1280545Y858510D01*
X1240390Y893277D02*
X1276735Y856932D01*
X1236580Y891699D02*
X1272925Y855353D01*
X1232770Y890120D02*
X1269115Y853775D01*
X1228960Y888542D02*
X1265305Y852197D01*
X1225150Y886964D02*
X1261495Y850619D01*
X1220876Y378246D02*
X1261495Y418865D01*
X1221340Y885386D02*
X1257685Y849041D01*
X1043000Y961910D02*
X1253875Y751035D01*
X1030750Y968772D02*
X1250065Y749457D01*
X1147000Y844410D02*
X1246255Y745155D01*
X1134000Y849410D02*
X1242445Y740965D01*
X1127961Y845871D02*
X1238635Y735197D01*
X1124151Y842009D02*
X1234825Y731335D01*
X1162500Y714660D02*
X1231015Y646145D01*
X1227205Y446988D02*
Y613955D01*
X1223395Y448567D02*
Y610093D01*
X1261500Y345160D02*
X1262172D01*
X1263000Y353660D02*
Y354660D01*
X1124151Y842009D02*
Y853371D01*
X1082500Y883660D02*
X1093862D01*
X1124151Y853371D01*
X1080253Y889085D02*
X1093825D01*
X1127961Y854949D01*
Y845871D02*
Y854949D01*
X1074078Y882910D02*
X1080253Y889085D01*
X1003000Y882910D02*
X1074078D01*
X989500Y765660D02*
X1089750Y865910D01*
X951000Y765660D02*
X989500D01*
X914000Y793910D02*
X1003000Y882910D01*
X1130865Y702623D02*
Y709295D01*
X1125500Y714660D02*
X1130865Y709295D01*
X1112750Y709160D02*
X1201000Y620910D01*
X1112750Y709160D02*
Y717910D01*
X903250Y788548D02*
X1010112Y895410D01*
X1056000D01*
X1481500Y844410D02*
X1501500Y824410D01*
X1446500Y844410D02*
X1481500D01*
X1433750Y831660D02*
X1446500Y844410D01*
X1501500Y824410D02*
X1508250D01*
X1112750Y717910D02*
X1125500Y730660D01*
X1043000Y961910D02*
Y973660D01*
X1030750Y968772D02*
Y977410D01*
X903250Y776410D02*
Y788548D01*
Y776410D02*
X914000Y765660D01*
Y781660D02*
Y793910D01*
X1199880Y351775D02*
X1214131Y366026D01*
X1155380Y351775D02*
X1199880D01*
X1137070Y370085D02*
X1155380Y351775D01*
X1156958Y355585D02*
X1198302D01*
X1140880Y371663D02*
X1156958Y355585D01*
X1153073Y375635D02*
X1161693Y367015D01*
X1158498Y375598D02*
X1163271Y370825D01*
X1158536Y359395D02*
X1196724D01*
X1160114Y363205D02*
X1195146D01*
X1161693Y367015D02*
X1193568D01*
X1080000Y937160D02*
Y973660D01*
Y937160D02*
X1176000Y841160D01*
X1030750Y977410D02*
X1043000Y989660D01*
X1142000Y1111660D02*
Y1148660D01*
Y1111660D02*
X1204000Y1049660D01*
X1105000Y1139160D02*
X1228960Y1015200D01*
Y888542D02*
Y1015200D01*
X1105000Y1139160D02*
Y1148660D01*
X1177250Y1052410D02*
Y1052660D01*
Y1052410D02*
X1221340Y1008320D01*
X1095250Y1142684D02*
X1225150Y1012784D01*
X1095250Y1142684D02*
Y1154910D01*
X1225150Y886964D02*
Y1012784D01*
X1095250Y1154910D02*
X1105000Y1164660D01*
X1221340Y885386D02*
Y1008320D01*
X1278809Y354069D02*
Y354219D01*
X1217000Y1260660D02*
Y1339660D01*
X1203500Y1247160D02*
X1217000Y1260660D01*
X1156250Y1269660D02*
X1159552D01*
X1232770Y1196442D01*
X1165750Y1268850D02*
X1236580Y1198020D01*
X1178500Y1261488D02*
X1240390Y1199598D01*
Y893277D02*
Y1199598D01*
X1165750Y1268850D02*
Y1346910D01*
X1178500Y1261488D02*
Y1338160D01*
X1236580Y891699D02*
Y1198020D01*
X1232770Y890120D02*
Y1196442D01*
X1174500Y1355660D02*
X1180000D01*
X1165750Y1346910D02*
X1174500Y1355660D01*
X1255630Y899589D02*
Y1219280D01*
X1244200Y894855D02*
Y1211184D01*
X1273380Y903392D02*
Y1067040D01*
X1251820Y898011D02*
Y1214340D01*
X1259440Y901167D02*
Y1241600D01*
X1269570Y901814D02*
Y1071730D01*
X1248010Y896433D02*
Y1212762D01*
X1277190Y904970D02*
Y1065462D01*
X1263250Y902746D02*
Y1229410D01*
X1178500Y1338160D02*
X1180000Y1339660D01*
X1235630Y1219754D02*
X1244200Y1211184D01*
X1239440Y1221332D02*
X1248010Y1212762D01*
X1243250Y1222910D02*
X1251820Y1214340D01*
X1235630Y1219754D02*
Y1236316D01*
X1243250Y1222910D02*
Y1233160D01*
X1239440Y1221332D02*
Y1234738D01*
X1313000Y1483160D02*
Y1569660D01*
X1282000Y1452160D02*
X1313000Y1483160D01*
X1272500Y1566160D02*
X1276000Y1569660D01*
X1261250Y1545910D02*
Y1570910D01*
X1276000Y1585660D01*
X1261250Y1545910D02*
X1268690Y1538470D01*
Y1263988D02*
Y1538470D01*
X1264880Y1265566D02*
Y1451280D01*
X1254500Y1461660D02*
X1264880Y1451280D01*
X1235630Y1236316D02*
X1264880Y1265566D01*
X1239440Y1234738D02*
X1268690Y1263988D01*
X1272500Y1262410D02*
Y1566160D01*
X1243250Y1233160D02*
X1272500Y1262410D01*
X1404500Y1325160D02*
X1409500Y1330160D01*
X1375750Y1325160D02*
X1404500D01*
X1270500Y1219910D02*
X1375750Y1325160D01*
X1409500Y1330160D02*
Y1338660D01*
X1249250Y1225660D02*
X1255630Y1219280D01*
X1259440Y1241600D02*
X1372500Y1354660D01*
X1263250Y1229410D02*
X1372500Y1338660D01*
X1500500Y1128160D02*
Y1137660D01*
X1448500Y1076160D02*
X1500500Y1128160D01*
X1317500Y1076160D02*
X1448500D01*
X1349388Y1137660D02*
X1463500D01*
X1277190Y1065462D02*
X1349388Y1137660D01*
X1360000Y1153660D02*
X1463500D01*
X1273380Y1067040D02*
X1360000Y1153660D01*
X1269570Y1071730D02*
X1269750Y1071910D01*
X1281000Y1020160D02*
X1290500Y1029660D01*
X1281000Y992772D02*
Y1020160D01*
X1290250Y988910D02*
Y1013410D01*
X1290500Y1013660D01*
X1327500D02*
X1335000Y1006160D01*
Y878660D02*
Y1006160D01*
X1578000Y894160D02*
Y933660D01*
X1508250Y824410D02*
X1578000Y894160D01*
X1361362Y840910D02*
X1416750D01*
X1344750Y818910D02*
X1410250D01*
X1541000Y949660D01*
Y870160D02*
Y933660D01*
X1507250Y836410D02*
X1541000Y870160D01*
X1454750Y823160D02*
Y823410D01*
X1337750Y788660D02*
X1346000D01*
X1335500Y786410D02*
X1337750Y788660D01*
X1335500Y760910D02*
Y786410D01*
X1346250Y755548D02*
Y772410D01*
X1346000Y772660D02*
X1346250Y772410D01*
X1383000Y763910D02*
Y772660D01*
X1660500Y739410D02*
Y748660D01*
X1545500Y624410D02*
X1660500Y739410D01*
X1457250Y624410D02*
X1545500D01*
X1569875Y764660D02*
X1623500D01*
X1436375Y631160D02*
X1569875Y764660D01*
X1428250Y631160D02*
X1436375D01*
X1436296Y624910D02*
X1436645D01*
X1560395Y748660D01*
X1623500D01*
X1401283Y369842D02*
X1415683D01*
X1390100Y358660D02*
X1401283Y369842D01*
X1415683D02*
X1419500Y373660D01*
Y404660D01*
X1430500Y415660D01*
X1453500D01*
X1460118Y445278D02*
X1462718D01*
X1459500Y444660D02*
X1460118Y445278D01*
X1462718D02*
X1467300Y449860D01*
X1453500Y449660D02*
X1456500Y452660D01*
X1453500Y441660D02*
Y449660D01*
Y441660D02*
X1457500Y437660D01*
X1431500Y448660D02*
X1448500Y431660D01*
X1456500D01*
X1457500Y437660D02*
X1466800D01*
X1467300Y437160D01*
X1519500Y372660D02*
Y407660D01*
X1453575Y403585D02*
X1497425D01*
X1453500Y403660D02*
X1453575Y403585D01*
X1467300Y417460D02*
Y424460D01*
X1453500Y403660D02*
X1467300Y417460D01*
X1515000Y473160D02*
Y484660D01*
X1490500Y448660D02*
X1515000Y473160D01*
X1456500Y462660D02*
X1456550Y462610D01*
X1467250D01*
X1467300Y462560D01*
X1436500Y360660D02*
Y389660D01*
X1426500Y399660D02*
X1436500Y389660D01*
X1480000Y424460D02*
X1483500Y420960D01*
Y413660D02*
Y420960D01*
D28*
X1500000Y484660D02*
D03*
X1515000D02*
D03*
D29*
X1744190Y360350D02*
X1757500Y373660D01*
X1668250Y360350D02*
X1744190D01*
X1493810D02*
X1668250D01*
X1012131Y474750D02*
X1023250D01*
X1007460Y470079D02*
X1012131Y474750D01*
X1007460Y428395D02*
Y470079D01*
Y428395D02*
X1125490Y310365D01*
X1063250Y514750D02*
X1094750D01*
X1023250Y474750D02*
X1063250Y514750D01*
X1125490Y310365D02*
X1443825D01*
X1080000Y1166410D02*
X1099438Y1185848D01*
X1131652D01*
X1142000Y1164660D02*
Y1175500D01*
X1131652Y1185848D02*
X1142000Y1175500D01*
X1131652Y1185848D02*
X1139794Y1193991D01*
X1577250Y964000D02*
Y1077860D01*
Y950410D02*
Y964000D01*
Y950410D02*
X1578000Y949660D01*
X1505950Y1149160D02*
X1577250Y1077860D01*
X1210250Y1375000D02*
X1217000Y1368250D01*
X1160840Y1375000D02*
X1210250D01*
X1139794Y1353954D02*
X1160840Y1375000D01*
X1217000Y1355660D02*
Y1368250D01*
X1156500Y749250D02*
X1162500Y743250D01*
X1114750Y749250D02*
X1156500D01*
X1108075Y742575D02*
X1114750Y749250D01*
X1162500Y730660D02*
X1162500Y743250D01*
X1108075Y742575D02*
Y846085D01*
Y698085D02*
Y742575D01*
X1656000Y778500D02*
Y872610D01*
Y769160D02*
Y778500D01*
X1648590Y785910D02*
X1656000Y778500D01*
X1520500Y785910D02*
X1648590D01*
X1516090Y1025160D02*
X1577250Y964000D01*
X1332000Y1025160D02*
X1516090D01*
X1443825Y310365D02*
X1470620Y337160D01*
X1493810Y360350D01*
X1375250Y337160D02*
X1470620D01*
X1368600Y343810D02*
X1375250Y337160D01*
X1368600Y343810D02*
Y611510D01*
X1374814Y617724D02*
Y626181D01*
X1368600Y611510D02*
X1374814Y617724D01*
X1196750Y609410D02*
X1213750D01*
X1079500Y875660D02*
X1092750D01*
X1108000Y860410D01*
Y846160D02*
Y860410D01*
Y846160D02*
X1108075Y846085D01*
Y698085D02*
X1196750Y609410D01*
X1374814Y626181D02*
Y640224D01*
X1520500Y785910D01*
X1068500Y1008410D02*
X1080000Y1019910D01*
X1079750Y989910D02*
Y997160D01*
Y989910D02*
X1080000Y989660D01*
X1068500Y1008410D02*
X1079750Y997160D01*
X1032250Y1008410D02*
X1068500D01*
X1021500Y997660D02*
X1032250Y1008410D01*
X1080000Y1019910D02*
Y1166410D01*
X1021500Y962910D02*
Y997660D01*
Y962910D02*
X1068000Y916410D01*
Y888660D02*
Y916410D01*
X1079500Y875660D02*
Y875660D01*
X985500Y781660D02*
X1079500Y875660D01*
X951000Y781660D02*
X985500D01*
X1139794Y1193991D02*
Y1353954D01*
X1327500Y1029660D02*
X1332000Y1025160D01*
X1656000Y769160D02*
X1660500Y764660D01*
X1473500Y832910D02*
X1520500Y785910D01*
X1449000Y832910D02*
X1473500D01*
X1404750Y788660D02*
X1449000Y832910D01*
X1383000Y788660D02*
X1404750D01*
X1313000Y1585660D02*
X1317500Y1581160D01*
X1318450D01*
X1405000Y1494610D01*
Y1359160D02*
Y1494610D01*
Y1359160D02*
X1409500Y1354660D01*
X1414000Y1350160D01*
X1414950D01*
X1496000Y1269110D01*
Y1158160D02*
Y1269110D01*
Y1158160D02*
X1500500Y1153660D01*
X1505000Y1149160D01*
X1505950D01*
X1578000Y949660D02*
X1582500Y945160D01*
X1583450D01*
X1656000Y872610D01*
X1478500Y375660D02*
X1493810Y360350D01*
X1757500Y373660D02*
Y398660D01*
D30*
X918500Y448000D02*
Y450000D01*
Y448000D02*
X935500Y431000D01*
Y382660D02*
Y431000D01*
Y382660D02*
X953250Y364910D01*
X1023604D02*
X1101854Y286660D01*
X953250Y364910D02*
X1023604D01*
X1101854Y286660D02*
X1455500D01*
X1525560Y370150D02*
Y429600D01*
X1525196Y369786D02*
X1525560Y370150D01*
X1525196Y368044D02*
Y369786D01*
X1524821Y367668D02*
X1525196Y368044D01*
X1633759Y367668D02*
X1638500Y372410D01*
X1525321Y430922D02*
X1525333Y430910D01*
X1524821Y367668D02*
X1633759D01*
X928750Y386660D02*
X929125Y386285D01*
X1455500Y286660D02*
X1519500Y350660D01*
D32*
X1415500Y358660D02*
D03*
D33*
X1390100D02*
D03*
D34*
X1463500Y487960D02*
D03*
X1473650Y411760D02*
D03*
X1483800Y487960D02*
D03*
D35*
X1788000Y399660D02*
D03*
Y449660D02*
D03*
D36*
X1815000Y389660D02*
D03*
Y459660D02*
D03*
D37*
X1070750Y428500D02*
D03*
Y450000D02*
D03*
X1092250D02*
D03*
X1092500Y428250D02*
D03*
X1013500Y500250D02*
D03*
X1146250Y505250D02*
D03*
X1668250Y360350D02*
D03*
X1103750Y466250D02*
D03*
X1498500Y351500D02*
D03*
X1094750Y514750D02*
D03*
X1013800Y431271D02*
D03*
Y439021D02*
D03*
Y447272D02*
D03*
Y467523D02*
D03*
X1042000Y479750D02*
D03*
X1028250Y489000D02*
D03*
X1019000Y482250D02*
D03*
X1005500Y393500D02*
D03*
X1013750Y456250D02*
D03*
X1158000Y472250D02*
D03*
X1157750Y463250D02*
D03*
X1158000Y447000D02*
D03*
X1157750Y455000D02*
D03*
X1158250Y438000D02*
D03*
Y428750D02*
D03*
X1118250Y370750D02*
D03*
X1061250Y467000D02*
D03*
X1054000D02*
D03*
X1220306Y385419D02*
D03*
X1220876Y378160D02*
D03*
X1220057Y392670D02*
D03*
X1221307Y370919D02*
D03*
X1275250Y273500D02*
D03*
X795500D02*
D03*
X803000D02*
D03*
X810500D02*
D03*
X758000D02*
D03*
X750500D02*
D03*
X743000D02*
D03*
X735500D02*
D03*
X765500D02*
D03*
X773000D02*
D03*
X780500D02*
D03*
X788000D02*
D03*
X713000D02*
D03*
X720500D02*
D03*
X728000D02*
D03*
X833000D02*
D03*
X825500D02*
D03*
X818000D02*
D03*
X897250D02*
D03*
X904750D02*
D03*
X912250D02*
D03*
X867250D02*
D03*
X874750D02*
D03*
X882250D02*
D03*
X889750D02*
D03*
X934750D02*
D03*
X927250D02*
D03*
X919750D02*
D03*
X1025500D02*
D03*
X1033000D02*
D03*
X1040500D02*
D03*
X988000D02*
D03*
X980500D02*
D03*
X973000D02*
D03*
X965500D02*
D03*
X995500D02*
D03*
X1003000D02*
D03*
X1010500D02*
D03*
X1018000D02*
D03*
X943000D02*
D03*
X950500D02*
D03*
X958000D02*
D03*
X1063000D02*
D03*
X1055500D02*
D03*
X1048000D02*
D03*
X1153000D02*
D03*
X1160500D02*
D03*
X1168000D02*
D03*
X1115500D02*
D03*
X1108000D02*
D03*
X1100500D02*
D03*
X1093000D02*
D03*
X1123000D02*
D03*
X1130500D02*
D03*
X1138000D02*
D03*
X1145500D02*
D03*
X1070500D02*
D03*
X1078000D02*
D03*
X1085500D02*
D03*
X1190500D02*
D03*
X1183000D02*
D03*
X1175500D02*
D03*
X1292500D02*
D03*
X1243000D02*
D03*
X1235500D02*
D03*
X1228000D02*
D03*
X1220500D02*
D03*
X1251500D02*
D03*
X1259500D02*
D03*
X1267500D02*
D03*
X1198000D02*
D03*
X1205500D02*
D03*
X1213000D02*
D03*
X1318000D02*
D03*
X1310500D02*
D03*
X1303000D02*
D03*
X1408000D02*
D03*
X1415500D02*
D03*
X1423000D02*
D03*
X1370500D02*
D03*
X1363000D02*
D03*
X1355500D02*
D03*
X1348000D02*
D03*
X1378000D02*
D03*
X1385500D02*
D03*
X1393000D02*
D03*
X1400500D02*
D03*
X1325500D02*
D03*
X1333000D02*
D03*
X1340500D02*
D03*
X1445500D02*
D03*
X1438000D02*
D03*
X1430500D02*
D03*
X1535500D02*
D03*
X1543000D02*
D03*
X1550500D02*
D03*
X1498000D02*
D03*
X1490500D02*
D03*
X1483000D02*
D03*
X1475500D02*
D03*
X1505500D02*
D03*
X1513000D02*
D03*
X1520500D02*
D03*
X1528000D02*
D03*
X1453000D02*
D03*
X1460500D02*
D03*
X1468000D02*
D03*
X1573000D02*
D03*
X1565500D02*
D03*
X1558000D02*
D03*
X1663000D02*
D03*
X1670500D02*
D03*
X1678000D02*
D03*
X1625500D02*
D03*
X1618000D02*
D03*
X1610500D02*
D03*
X1603000D02*
D03*
X1633000D02*
D03*
X1640500D02*
D03*
X1648000D02*
D03*
X1655500D02*
D03*
X1580500D02*
D03*
X1588000D02*
D03*
X1595500D02*
D03*
X1700500D02*
D03*
X1693000D02*
D03*
X1685500D02*
D03*
X1837500D02*
D03*
X1845000D02*
D03*
X1852500D02*
D03*
X1139000Y619250D02*
D03*
X742500Y644750D02*
D03*
X853000Y860000D02*
D03*
X1215250Y858500D02*
D03*
X1592500Y879750D02*
D03*
X1836500Y644500D02*
D03*
X1776500Y841250D02*
D03*
X1683250Y1049750D02*
D03*
X1503250Y1006000D02*
D03*
X1136000Y1065000D02*
D03*
X934750Y1047750D02*
D03*
X991500Y1239000D02*
D03*
X1146750Y1272000D02*
D03*
X1404250Y1244000D02*
D03*
X1614000Y1243000D02*
D03*
X1069500Y1443750D02*
D03*
X1209500Y1478750D02*
D03*
X1360750Y1464750D02*
D03*
X1483500Y1468250D02*
D03*
X1290750Y1805500D02*
D03*
X1284000Y239500D02*
D03*
Y247750D02*
D03*
Y256750D02*
D03*
Y266250D02*
D03*
X1747500Y273500D02*
D03*
X1740000D02*
D03*
X1732500D02*
D03*
X1807500D02*
D03*
X1800000D02*
D03*
X1792500D02*
D03*
X1785000D02*
D03*
X1755000D02*
D03*
X1762500D02*
D03*
X1770000D02*
D03*
X1777500D02*
D03*
X1830000D02*
D03*
X1822500D02*
D03*
X1815000D02*
D03*
X918500Y450000D02*
D03*
X1220057Y399920D02*
D03*
X1219557Y407170D02*
D03*
X1222000Y363660D02*
D03*
X1234500Y350410D02*
D03*
X1218250Y345660D02*
D03*
X1228500Y345910D02*
D03*
X1490750Y377660D02*
D03*
X1504250Y373660D02*
D03*
X1508000Y422410D02*
D03*
X1525321Y430922D02*
D03*
X1524821Y367668D02*
D03*
X1436500Y360660D02*
D03*
X1522071Y343417D02*
D03*
X928750Y386660D02*
D03*
X1389750Y296660D02*
D03*
X1417250Y302910D02*
D03*
X1350813Y324416D02*
D03*
X1342812Y332167D02*
D03*
X1330177Y345838D02*
D03*
X1343750Y610410D02*
D03*
X1337312Y604430D02*
D03*
X1335500Y597160D02*
D03*
X1333250Y361160D02*
D03*
X1224750Y616410D02*
D03*
X1213750Y609410D02*
D03*
X1321250Y346410D02*
D03*
X1312500Y353660D02*
D03*
X1244500Y353910D02*
D03*
X1245750Y345410D02*
D03*
X1263000Y353660D02*
D03*
X1261500Y345160D02*
D03*
X1082500Y883660D02*
D03*
X1089750Y865910D02*
D03*
X1201000Y620910D02*
D03*
X1374814Y626181D02*
D03*
X1068000Y888660D02*
D03*
X1079500Y875660D02*
D03*
X1056000Y895410D02*
D03*
X1134000Y849410D02*
D03*
X1147000Y844410D02*
D03*
X1176000Y841160D02*
D03*
X1204000Y1049660D02*
D03*
X1177250Y1052660D02*
D03*
X1295750Y353410D02*
D03*
X1278809Y354069D02*
D03*
X1297250Y346160D02*
D03*
X1312000Y344160D02*
D03*
X1203500Y1247160D02*
D03*
X1156250Y1269660D02*
D03*
X1282000Y1452160D02*
D03*
X1254500Y1461660D02*
D03*
X1279500Y346660D02*
D03*
X1270500Y1219910D02*
D03*
X1249250Y1225660D02*
D03*
X1317500Y1076160D02*
D03*
X1269750Y1071910D02*
D03*
X1335000Y878660D02*
D03*
X1304500Y888410D02*
D03*
X1433750Y831660D02*
D03*
X1416750Y840910D02*
D03*
X1507250Y836410D02*
D03*
X1454750Y823410D02*
D03*
X1457250Y624410D02*
D03*
X1428250Y631160D02*
D03*
X1436296Y624910D02*
D03*
X1519500Y350660D02*
D03*
Y372660D02*
D03*
X1478500Y375660D02*
D03*
X1757500Y398660D02*
D03*
X1431500Y448660D02*
D03*
X1456500Y431660D02*
D03*
X1459500Y444660D02*
D03*
X1453500Y479660D02*
D03*
X1519500Y407660D02*
D03*
X1490500Y435660D02*
D03*
X1453500Y403660D02*
D03*
X1638500Y372410D02*
D03*
X1453500Y415660D02*
D03*
X1490500Y448660D02*
D03*
X1456500Y452660D02*
D03*
Y462660D02*
D03*
X1426500Y399660D02*
D03*
X1483500Y413660D02*
D03*
D38*
X1480000Y424460D02*
D03*
Y437160D02*
D03*
Y449860D02*
D03*
Y462560D02*
D03*
Y475260D02*
D03*
X1467300D02*
D03*
Y462560D02*
D03*
Y449860D02*
D03*
Y437160D02*
D03*
Y424460D02*
D03*
D39*
X1276000Y1569660D02*
D03*
Y1585660D02*
D03*
X1313000D02*
D03*
Y1569660D02*
D03*
X1217000Y1339660D02*
D03*
Y1355660D02*
D03*
X1180000D02*
D03*
Y1339660D02*
D03*
X1142000Y1148660D02*
D03*
Y1164660D02*
D03*
X1105000D02*
D03*
Y1148660D02*
D03*
X1080000Y973660D02*
D03*
Y989660D02*
D03*
X1043000D02*
D03*
Y973660D02*
D03*
X1162500Y714660D02*
D03*
Y730660D02*
D03*
X1125500D02*
D03*
Y714660D02*
D03*
X951000Y765660D02*
D03*
Y781660D02*
D03*
X914000D02*
D03*
Y765660D02*
D03*
X1409500Y1338660D02*
D03*
Y1354660D02*
D03*
X1372500D02*
D03*
Y1338660D02*
D03*
X1500500Y1137660D02*
D03*
Y1153660D02*
D03*
X1463500D02*
D03*
Y1137660D02*
D03*
X1327500Y1013660D02*
D03*
Y1029660D02*
D03*
X1290500D02*
D03*
Y1013660D02*
D03*
X1578000Y933660D02*
D03*
Y949660D02*
D03*
X1541000D02*
D03*
Y933660D02*
D03*
X1383000Y772660D02*
D03*
Y788660D02*
D03*
X1346000D02*
D03*
Y772660D02*
D03*
X1660500Y748660D02*
D03*
Y764660D02*
D03*
X1623500D02*
D03*
Y748660D02*
D03*
%TF.MD5,4e92dde7f5a5d2f26f83dd55ca220554*%
M02*
